<?xml version="1.0" encoding="UTF-8"?>
<svg width="16px" height="16px" viewBox="0 0 16 16" version="1.1" xmlns="http://www.w3.org/2000/svg" xmlns:xlink="http://www.w3.org/1999/xlink">
    <!-- Generator: Sketch 53.2 (72643) - https://sketchapp.com -->
    <title>add</title>
    <desc>Created with Sketch.</desc>
    <g id="Mobile" stroke="none" stroke-width="1" fill="none" fill-rule="evenodd">
        <g id="Icons-/-FUNCTIONS-/-Tables-/-add_circle" fill="#FFFFFF" fill-rule="nonzero">
            <path d="M8,0.666666667 C3.952,0.666666667 0.666666667,3.952 0.666666667,8 C0.666666667,12.048 3.952,15.3333333 8,15.3333333 C12.048,15.3333333 15.3333333,12.048 15.3333333,8 C15.3333333,3.952 12.048,0.666666667 8,0.666666667 Z M10.9333333,8.73333333 L8.73333333,8.73333333 L8.73333333,10.9333333 C8.73333333,11.3366667 8.40333333,11.6666667 8,11.6666667 C7.59666667,11.6666667 7.26666667,11.3366667 7.26666667,10.9333333 L7.26666667,8.73333333 L5.06666667,8.73333333 C4.66333333,8.73333333 4.33333333,8.40333333 4.33333333,8 C4.33333333,7.59666667 4.66333333,7.26666667 5.06666667,7.26666667 L7.26666667,7.26666667 L7.26666667,5.06666667 C7.26666667,4.66333333 7.59666667,4.33333333 8,4.33333333 C8.40333333,4.33333333 8.73333333,4.66333333 8.73333333,5.06666667 L8.73333333,7.26666667 L10.9333333,7.26666667 C11.3366667,7.26666667 11.6666667,7.59666667 11.6666667,8 C11.6666667,8.40333333 11.3366667,8.73333333 10.9333333,8.73333333 Z" id="icon/content/add_circle_24px"></path>
        </g>
    </g>
</svg>