<?xml version="1.0" encoding="UTF-8"?>
<svg width="68px" height="68px" viewBox="0 0 68 68" version="1.1" xmlns="http://www.w3.org/2000/svg" xmlns:xlink="http://www.w3.org/1999/xlink">
    <!-- Generator: Sketch 53.2 (72643) - https://sketchapp.com -->
    <title>Icons / APPS / EXTERNAL / CARDS 1</title>
    <desc>Created with Sketch.</desc>
    <g id="Icons-/-APPS-/-EXTERNAL-/-CARDS-1" stroke="none" stroke-width="1" fill="none" fill-rule="evenodd">
        <g id="Group-2" transform="translate(31.000000, 33.000000)" fill="#FFFFFF">
            <path d="M10.5340942,2.73939455 L13.5538723,2.73939455 L9.06617199,14.6483104 L6.05027399,14.6502974 L3.49856452,4.21550754 C5.30834838,5.25006715 6.92637112,7.3149916 7.44610707,9.22007372 L7.74487865,10.8736912 L10.5340942,2.73939455 Z M14.7076044,2.72943752 L17.5572686,2.72943752 L15.7746458,14.6606518 L12.9247774,14.6606518 L14.7076044,2.72943752 Z M26.1114075,3.02220949 L25.7254346,5.6086085 L25.4695489,5.47216851 C24.9436864,5.22975569 24.2689486,4.99771938 23.3368957,5.01383608 C22.2206376,5.01383608 21.7049861,5.54458326 21.7043734,6.0406685 C21.69743,6.60055821 22.3086558,6.96704752 23.3044249,7.52009315 C24.9489961,8.37118732 25.7082802,9.40221449 25.6980693,10.762199 C25.6751969,13.2379888 23.7296077,14.837516 20.7353569,14.837516 C19.4569494,14.8225032 18.2251038,14.533948 17.5605769,14.2016791 L17.9590071,11.5309434 L18.3255792,11.7208114 C19.2627377,12.1663387 19.868858,12.3464925 21.0098265,12.3464925 C21.8291509,12.3464925 22.7079029,11.9804448 22.7154589,11.1812331 C22.7199517,10.6588755 22.3468446,10.2848797 21.236509,9.70070459 C20.1559892,9.13065916 18.7227841,8.17403373 18.7407553,6.45926112 C18.757297,4.14066424 20.7404624,2.52148795 23.55786,2.52148795 C24.6618649,2.52148795 25.5479688,2.78266678 26.1114075,3.02220949 Z M33.4216109,2.741514 L35.7278498,14.6647803 L33.0830167,14.6647803 C33.0830167,14.6647803 32.8214129,13.293757 32.7358454,12.8773722 C32.3208735,12.8773722 29.4123944,12.8711904 29.0860533,12.8711904 C28.9751627,13.193966 28.4868764,14.6647803 28.4868764,14.6647803 L25.4936467,14.6647803 L29.7256655,3.73059361 C30.0248455,2.95257652 30.5362085,2.741514 31.2193192,2.741514 L33.4216109,2.741514 Z M29.9059904,10.430504 L32.2716569,10.430504 C32.1591325,9.8339654 31.6122355,6.98616678 31.6122355,6.98616678 L31.4198617,5.9571266 C31.2760919,6.40442019 31.0244948,7.12702232 31.0412407,7.09567203 C31.0412407,7.09567203 30.1420669,9.74477162 29.9059904,10.430504 Z" id="Combined-Shape"></path>
            <path d="M4.63345103,0.25722693 L0.0379233652,0.25722693 L-6.12655335e-05,0.504496831 C3.57600793,1.49269333 5.94187861,3.87840632 6.92396511,6.74607484 L5.92533692,1.26396867 C5.75297655,0.507808482 5.25223292,0.283720134 4.63345103,0.25722693" id="Fill-10"></path>
        </g>
        <path d="M0,41 L23.942446,41 L23.942446,63 L0,63 L0,41 Z M4.60431655,50.96875 L17.6272904,50.96875 C18.1517622,50.96875 18.5769306,50.5455192 18.5769306,50.0234375 C18.5769306,49.5013558 18.1517622,49.078125 17.6272904,49.078125 L4.60431655,49.078125 C4.0798447,49.078125 3.65467626,49.5013558 3.65467626,50.0234375 C3.65467626,50.5455192 4.0798447,50.96875 4.60431655,50.96875 Z M6.44604317,53.890625 L19.469017,53.890625 C19.9934888,53.890625 20.4186573,53.4673942 20.4186573,52.9453125 C20.4186573,52.4232308 19.9934888,52 19.469017,52 L6.44604317,52 C5.92157132,52 5.49640288,52.4232308 5.49640288,52.9453125 C5.49640288,53.4673942 5.92157132,53.890625 6.44604317,53.890625 Z" id="Combined-Shape" fill="#FFFFFF"></path>
        <g id="Group" transform="translate(0.000000, 5.000000)" fill="#FFFFFF">
            <path d="M22.0637342,10.9892647 C22.0637342,17.0527537 17.1259961,21.9675299 11.0345678,21.9675299 C4.9429653,21.9675299 0.00487860743,17.0527537 0.00487860743,10.9892647 C0.00487860743,4.92577585 4.9429653,0.0104791538 11.0345678,0.0104791538 C17.1259961,0.0104791538 22.0637342,4.92577585 22.0637342,10.9892647" id="Fill-2" fill-opacity="0.496659873"></path>
            <path d="M25.8421697,0.0105138529 C22.9916713,0.0105138529 20.395302,1.08670549 18.437567,2.85219415 C18.0394663,3.2120235 17.6675106,3.60065308 17.3244887,4.01443948 L19.5527369,4.01443948 C19.8570643,4.38329059 20.1376869,4.77105269 20.393559,5.1772053 L16.483318,5.1772053 C16.2494077,5.55056729 16.036762,5.9381559 15.8479953,6.33997112 L21.0288816,6.33997112 C21.2057959,6.71628253 21.3617942,7.10387114 21.4958307,7.50221646 L15.380872,7.50221646 C15.2534588,7.8809568 15.1460902,8.2687189 15.0603347,8.66428829 L21.8158451,8.66428829 C21.9775952,9.41396169 22.0636993,10.1913943 22.0636993,10.9892994 C22.0636993,12.2081043 21.8643004,13.3811063 21.4958307,14.4767294 L15.380872,14.4767294 C15.5149085,14.8749013 15.6709068,15.2628368 15.8476467,15.6396687 L21.0288816,15.6396687 C20.8395921,16.040443 20.6278178,16.4285521 20.3925132,16.8022611 L16.483318,16.8022611 C16.7384929,17.2071992 17.0194641,17.5954818 17.3244887,17.9638124 L19.5520397,17.9638124 C19.2095406,18.3779458 18.8375849,18.7665754 18.4380899,19.1265782 C20.3956506,20.8918934 22.9916713,21.9675646 25.8421697,21.9675646 C31.9334236,21.9675646 36.871336,17.0526149 36.871336,10.9892994 C36.871336,4.92633103 31.9334236,0.0105138529 25.8421697,0.0105138529" id="Fill-4"></path>
            <polygon id="Rectangle-23" points="14.7449033 9.87179487 22 9.87179487 22 11.0940171 14.5972522 11.0940171"></polygon>
            <polygon id="Rectangle-23-Copy" points="14.5662193 12.1120459 22 12.1120459 22 13.3342682 14.7169563 13.3342682"></polygon>
        </g>
    </g>
</svg>