<?xml version="1.0" encoding="UTF-8"?>
<svg width="68px" height="68px" viewBox="0 0 68 68" version="1.1" xmlns="http://www.w3.org/2000/svg" xmlns:xlink="http://www.w3.org/1999/xlink">
    <!-- Generator: Sketch 53.2 (72643) - https://sketchapp.com -->
    <title>Icons / APPS / EXTERNAL / WEEBLY 1</title>
    <desc>Created with Sketch.</desc>
    <g id="Icons-/-APPS-/-EXTERNAL-/-WEEBLY-1" stroke="none" stroke-width="1" fill="none" fill-rule="evenodd">
        <path d="M55.7362282,9 C62.2629621,9 67,13.7162937 67,20.2141861 C67,22.11568 66.4798317,23.667585 66.0206142,25.0364923 C65.9266833,25.3162475 65.8277428,25.611568 65.7288023,25.9258193 L65.6615896,26.1281685 L57.0374838,50.6519702 C54.1510927,58.7875873 48.3065056,60 45.0786236,60 C40.0130365,60 36.0620956,57.3711427 33.9997913,52.7129035 C31.9408267,57.3496878 27.9903033,59.9659246 22.9213764,59.9659246 C19.6897372,59.9659246 13.8393055,58.7556153 10.9675259,50.6498668 L2.39101173,26.2093606 C1.629963,23.9847811 1,21.9339443 1,19.3648242 C1,13.5564336 5.94786046,9.00588958 12.2646067,9.00588958 C17.4124356,9.00588958 21.7040324,12.4525575 23.0207344,17.6105699 C25.3978114,9.85483086 31.4682501,9.00588958 34.0006262,9.00588958 C36.5346722,9.00588958 42.6071982,9.85483086 44.9796831,17.6122526 C46.2955501,12.4496127 50.5875644,9 55.7362282,9 Z M59.3363637,23.6207295 C59.8247429,22.0638137 60.3164557,20.9295615 60.3164557,19.7999354 C60.3164557,16.6911505 58.2162585,14.852459 55.2784826,14.852459 C52.8278358,14.852459 51.0789216,16.4884402 50.5197024,18.889842 L44.70874,38.3264763 L44.569977,38.3264763 L38.6906749,19.3150288 C37.9206026,16.5607767 36.5217212,14.8583469 33.5826952,14.8583469 C30.6432525,14.8583469 29.2439544,16.5637206 28.472632,19.3183933 L22.5937466,38.3264763 L22.4545668,38.3264763 L16.645688,18.889842 C16.0856354,16.4884402 14.3363045,14.8583469 11.8864911,14.8583469 C8.9487152,14.8583469 6.84810127,16.6903094 6.84810127,18.9512438 C6.84810127,20.4362437 7.19771743,21.7042343 7.89778317,23.7532061 L16.4356683,48.120915 C17.4849335,51.0871297 19.2342644,53.27741 22.52374,53.27741 C25.6036126,53.27741 27.4237835,51.5791858 28.3342857,48.6096065 L33.5106051,32.2926916 L33.6518683,32.2926916 L38.8319381,48.6096065 C39.7407735,51.5787652 41.5596943,53.3114754 44.6404003,53.3114754 C47.9294591,53.3114754 49.67754,51.1035316 50.728472,48.1373168 L59.3363637,23.6207295 Z" id="Combined-Shape" fill="#F9F9F9"></path>
    </g>
</svg>