<?xml version="1.0" encoding="UTF-8"?>
<svg width="14px" height="14px" viewBox="0 0 14 14" version="1.1" xmlns="http://www.w3.org/2000/svg" xmlns:xlink="http://www.w3.org/1999/xlink">
    <!-- Generator: Sketch 53.2 (72643) - https://sketchapp.com -->
    <title>Headers / @ / Actions / Close</title>
    <desc>Created with Sketch.</desc>
    <g id="Devices-screens" stroke="none" stroke-width="1" fill="none" fill-rule="evenodd" opacity="0.75">
        <g id="Headers-/-@-/-Actions-/-Close" transform="translate(-5.000000, -5.000000)" fill="#FFFFFF" fill-rule="nonzero">
            <g id="Icons-/-FUNCTIONS-/-24PX-/-Close">
                <path d="M12,10.4369219 L17.1131978,5.32372408 C17.5448299,4.89209197 18.2446438,4.89209197 18.6762759,5.32372408 C19.107908,5.7553562 19.107908,6.45517012 18.6762759,6.88680223 L13.5630781,12 L18.6762759,17.1131978 C19.107908,17.5448299 19.107908,18.2446438 18.6762759,18.6762759 C18.2446438,19.107908 17.5448299,19.107908 17.1131978,18.6762759 L12,13.5630781 L6.88680223,18.6762759 C6.45517012,19.107908 5.7553562,19.107908 5.32372408,18.6762759 C4.89209197,18.2446438 4.89209197,17.5448299 5.32372408,17.1131978 L10.4369219,12 L5.32372408,6.88680223 C4.89209197,6.45517012 4.89209197,5.7553562 5.32372408,5.32372408 C5.7553562,4.89209197 6.45517012,4.89209197 6.88680223,5.32372408 L12,10.4369219 Z" id="Combined-Shape"></path>
            </g>
        </g>
    </g>
</svg>