<?xml version="1.0" encoding="UTF-8"?>
<svg width="15px" height="12px" viewBox="0 0 15 12" version="1.1" xmlns="http://www.w3.org/2000/svg" xmlns:xlink="http://www.w3.org/1999/xlink">
    <!-- Generator: Sketch 53.2 (72643) - https://sketchapp.com -->
    <title>contact</title>
    <desc>Created with Sketch.</desc>
    <g id="Mobile" stroke="none" stroke-width="1" fill="none" fill-rule="evenodd">
        <g id="Icons-/-FUNCTIONS-/-16PX-/-Mail" transform="translate(0.000000, -2.000000)" fill="#FFFFFF">
            <g id="Group-3-Copy-3" transform="translate(0.000000, 2.000000)">
                <path d="M13.5,0 L1.5,0 C0.675,0 0,0.675 0,1.5 L0,10.5 C0,11.325 0.675,12 1.5,12 L13.5,12 C14.325,12 15,11.325 15,10.5 L15,1.5 C15,0.675 14.325,0 13.5,0 Z M13.2,3.1875 L8.295,6.255 C7.8075,6.5625 7.1925,6.5625 6.705,6.255 L1.8,3.1875 C1.6125,3.0675 1.5,2.865 1.5,2.6475 C1.5,2.145 2.0475,1.845 2.475,2.1075 L7.5,5.25 L12.525,2.1075 C12.9525,1.845 13.5,2.145 13.5,2.6475 C13.5,2.865 13.3875,3.0675 13.2,3.1875 Z" id="icon/content/mail_24px" fill-rule="nonzero"></path>
            </g>
        </g>
    </g>
</svg>