<?xml version="1.0" encoding="UTF-8"?>
<svg width="68px" height="68px" viewBox="0 0 68 68" version="1.1" xmlns="http://www.w3.org/2000/svg" xmlns:xlink="http://www.w3.org/1999/xlink">
    <!-- Generator: Sketch 53.2 (72643) - https://sketchapp.com -->
    <title>Icons / APPS / EXTERNAL / DAN DOMAIN 1</title>
    <desc>Created with Sketch.</desc>
    <g id="Icons-/-APPS-/-EXTERNAL-/-DAN-DOMAIN-1" stroke="none" stroke-width="1" fill="none" fill-rule="evenodd">
        <path d="M22.1001615,51.1013846 C22.1001615,51.1013846 20.3299576,53.8142194 17.3115091,53.8142194 C13.0736076,53.8142194 12.3194598,49.1964908 12.3194598,47.7828251 L12.3194598,34.1927974 C12.3194598,30.8160661 14.1769666,28.2195749 17.398812,28.2195749 C20.6197286,28.2195749 22.1001615,30.5852258 22.1001615,30.5852258 L22.1001615,51.1013846 Z M22.0713701,6.34699867 L33.3325046,2.99981493 L33.3325046,63.4799627 L25.7575922,63.4799627 L24.4220449,60.3931667 C24.4220449,60.3931667 22.651841,63.9998149 14.8150201,63.9998149 C12.6101596,63.9998149 7.96546409,63.0182821 5.29529818,60.2195749 C2.62513227,57.4208676 0.999813889,52.3109876 0.999813889,41.9545702 C0.999813889,33.9619571 1.64251121,28.7052628 3.14802041,25.1318556 C5.63707941,19.2232683 9.99107516,18.0912277 14.0608724,18.0912277 C20.5909373,18.0912277 22.0713701,21.5538315 22.0713701,21.5538315 L22.0713701,6.34699867 Z M55.7386794,6.34699867 L66.9998139,2.99981493 L66.9998139,63.4799627 L59.4249015,63.4799627 L58.0893542,60.3931667 C58.0893542,60.3931667 56.3191503,63.9998149 48.4823294,63.9998149 C46.2765402,63.9998149 41.6327734,63.0182821 38.9626075,60.2195749 C36.2924416,57.4208676 34.6671232,52.3109876 34.6671232,41.9545702 C34.6671232,33.9619571 35.3098205,28.7052628 36.8153297,25.1318556 C39.3034599,19.2232683 43.6583845,18.0912277 47.7281817,18.0912277 C54.2582465,18.0912277 55.7386794,21.5538315 55.7386794,21.5538315 L55.7386794,6.34699867 Z M55.7674708,51.1013846 L55.7674708,30.5852258 C55.7674708,30.5852258 54.2870379,28.2195749 51.0661212,28.2195749 C47.8442758,28.2195749 45.9867691,30.8160661 45.9867691,34.1927974 L45.9867691,47.7828251 C45.9867691,49.1964908 46.7409169,53.8142194 50.9788184,53.8142194 C53.9972669,53.8142194 55.7674708,51.1013846 55.7674708,51.1013846 Z" id="Combined-Shape" fill="#F9F9F9"></path>
    </g>
</svg>