<?xml version="1.0" encoding="UTF-8"?>
<svg width="16px" height="16px" viewBox="0 0 16 16" version="1.1" xmlns="http://www.w3.org/2000/svg" xmlns:xlink="http://www.w3.org/1999/xlink">
    <!-- Generator: Sketch 53.2 (72643) - https://sketchapp.com -->
    <title>Icons / FUNCTIONS / Tables / Dashboard </title>
    <desc>Created with Sketch.</desc>
    <g id="Icons-/-FUNCTIONS-/-Tables-/-Dashboard-" stroke="none" stroke-width="1" fill="none" fill-rule="evenodd">
        <g id="Group" transform="translate(0.000000, 1.000000)" fill="#FFFFFF">
            <path d="M0.436362643,5.20868196 L6.76506153,8.92423402 C7.3468618,9.26580647 8.29011322,9.26582595 8.87194667,8.92423402 L15.2006456,5.20868196 C15.7824458,4.86710951 15.782479,4.31333063 15.2006456,3.9717387 L8.87194667,0.256186642 C8.29014641,-0.0853858068 7.34689498,-0.0854052877 6.76506153,0.256186642 L0.436362643,3.9717387 C-0.145437623,4.31331115 -0.145470805,4.86709003 0.436362643,5.20868196 Z" id="Rectangle-5"></path>
            <path d="M0.96004947,6.48148148 L6.76506153,9.88957924 C7.3468618,10.2311517 8.29011322,10.2311712 8.87194667,9.88957924 L14.6769587,6.48148148 L15.2006456,6.78893578 C15.782479,7.13052771 15.7824458,7.68430659 15.2006456,8.02587904 L8.87194667,11.7414311 C8.29011322,12.083023 7.3468618,12.0830035 6.76506153,11.7414311 L0.436362643,8.02587904 C-0.145470805,7.68428711 -0.145437623,7.13050823 0.436362643,6.78893578 L0.96004947,6.48148148 Z" id="Combined-Shape" opacity="0.5"></path>
            <path d="M0.96004947,9.25925926 L6.76506153,12.667357 C7.3468618,13.0089295 8.29011322,13.008949 8.87194667,12.667357 L14.6769587,9.25925926 L15.2006456,9.56671356 C15.782479,9.90830549 15.7824458,10.4620844 15.2006456,10.8036568 L8.87194667,14.5192089 C8.29011322,14.8608008 7.3468618,14.8607813 6.76506153,14.5192089 L0.436362643,10.8036568 C-0.145470805,10.4620649 -0.145437623,9.90828601 0.436362643,9.56671356 L0.96004947,9.25925926 Z" id="Combined-Shape-Copy" opacity="0.3"></path>
        </g>
    </g>
</svg>