<?xml version="1.0" encoding="UTF-8"?>
<svg width="68px" height="68px" viewBox="0 0 68 68" version="1.1" xmlns="http://www.w3.org/2000/svg" xmlns:xlink="http://www.w3.org/1999/xlink">
    <!-- Generator: Sketch 53.2 (72643) - https://sketchapp.com -->
    <title>Icons / APPS / EXTERNAL / DEBITOOR 1</title>
    <desc>Created with Sketch.</desc>
    <g id="Icons-/-APPS-/-EXTERNAL-/-DEBITOOR-1" stroke="none" stroke-width="1" fill="none" fill-rule="evenodd">
        <path d="M48.4572346,56.6284595 C48.4572346,62.3562646 43.8046212,67 38.0641666,67 C32.323712,67 27.6703379,62.3562646 27.6703379,56.6284595 C27.6703379,50.8998953 32.323712,46.2561599 38.0641666,46.2561599 C43.8046212,46.2561599 48.4572346,50.8998953 48.4572346,56.6284595 Z M12.889466,46.7624387 C12.889466,49.4877959 10.675747,51.6969294 7.94473298,51.6969294 C5.21371892,51.6969294 3,49.4877959 3,46.7624387 C3,44.0370814 5.21371892,41.8279479 7.94473298,41.8279479 C10.675747,41.8279479 12.889466,44.0370814 12.889466,46.7624387 Z M62.5507886,6.22187702 C66.6982785,11.8950231 65.4522057,19.8494223 59.7672843,23.9883213 C57.1511402,25.8930347 54.0519337,26.6582604 51.0637935,26.3766148 C48.5039433,26.1352044 40.8936189,25.6728805 38.4212524,27.2860794 C35.327371,29.3046658 34.0113113,33.4116804 33.7823321,34.5876075 C33.2787301,37.1687258 31.5777419,39.4773083 28.9996342,40.656272 C24.7517282,42.6004614 19.7278795,40.7397788 17.7796547,36.4991533 C16.7359357,34.2270101 16.7876652,31.7316761 17.7142321,29.6068084 C17.9949408,28.9638063 19.0698497,25.276603 18.5152789,23.4311034 C17.960708,21.5856039 15.4776913,20.1098115 14.2681336,19.6383779 C12.6295251,19.0006898 11.1499089,17.8771442 10.4302601,16.1265387 C9.14919386,13.0071814 10.6447854,9.44068331 13.7706174,8.16227062 C16.8964493,6.88309878 20.4703502,8.37559246 21.7514164,11.4949498 C22.4459612,13.1878597 22.1933995,14.8185191 21.6327428,17.0246161 C21.1572877,18.896686 20.8575608,19.4827516 21.923341,21.8497889 C22.7418845,23.667959 25.4637698,24.2745218 27.735304,24.7755624 C30.007599,25.276603 33.1775532,25.3297436 35.8461876,23.0621553 C38.5140612,20.794567 39.096779,17.0724427 39.3592302,14.2043648 C39.7251404,10.2135005 41.2564862,5.98502146 44.7467069,3.44413828 C50.4316284,-0.694760756 58.4032987,0.548730921 62.5507886,6.22187702 Z" id="Combined-Shape" fill="#F9F9F9"></path>
    </g>
</svg>