<?xml version="1.0" encoding="UTF-8"?>
<svg width="68px" height="68px" viewBox="0 0 68 68" version="1.1" xmlns="http://www.w3.org/2000/svg" xmlns:xlink="http://www.w3.org/1999/xlink">
    <!-- Generator: Sketch 53.2 (72643) - https://sketchapp.com -->
    <title>Icons / APPS / EXTERNAL / EC 1</title>
    <desc>Created with Sketch.</desc>
    <g id="Icons-/-APPS-/-EXTERNAL-/-EC-1" stroke="none" stroke-width="1" fill="none" fill-rule="evenodd">
        <path d="M37.2582532,4.00049703 C37.4501047,4.00017674 37.5519714,4 37.5519714,4 L37.5519714,4.01774095 C46.3471439,4.02810372 64.7662825,4 64.7662825,4 L64.7662825,27.3756423 L47.5358174,27.3756423 L47.5358174,16.2937943 C47.5358174,16.2937943 46.4080284,16.2487153 44.964603,16.2937943 C44.2426898,16.3384743 43.0250627,17.0565465 43.0250627,18.2230148 C42.9797426,20.6457105 43.0250627,48.6425461 43.0250627,49.3606183 C43.0250627,50.0336115 43.4758575,50.9308027 44.964603,50.9758817 C46.4529475,51.0656407 47.5807364,50.9758817 47.5807364,50.9758817 L47.5807364,38.9964434 L64.8116026,38.9964434 L64.8116026,63 L37.7234675,63 L37.7700191,41.4960526 L28,41.4960526 L28,58.278567 C28,60.1951554 29.8699615,62.9534466 32.5811772,63 L32.3347307,63 L7.87171126,63 C7.87171126,63 3.40587567,62.2823268 3,57.9750906 C3.04491905,56.3598272 3,9.29458538 3,8.48675421 C3,7.724002 4.71414291,4 8.00686947,4 C10.6184189,4.03303713 25.2708313,4.01765027 32.9126091,4.00707231 C32.9764136,4.00238906 33.0394338,4 33.101563,4 C33.1076553,4.00012954 33.1139741,4.00025834 33.120518,4.0003864 C33.1349259,4.0001292 33.1492871,4 33.1636005,4 L37.2582532,4 Z M27.8808613,42.3614094 C27.8815866,41.2554151 27.8822983,40.1229215 27.8829806,38.9742809 L17.8850491,38.9513645 L17.8850491,49.2257803 C17.8850491,49.4052983 18.381565,50.9308027 20.140627,51.0205617 L22.5762821,51.0205617 L22.5762821,42.3614094 L27.8808613,42.3614094 Z M20.140627,16.1589563 C18.9225989,16.2040353 17.8850491,17.3705036 17.8850491,18.0881768 L17.8850491,27.3756423 L22.6216022,27.3756423 L22.6216022,16.2040353 C22.6216022,16.2040353 21.313335,16.1142762 20.140627,16.1589563 Z M37.2582532,4.00049703 C36.7026379,4.00142459 35.3923008,4.00355607 33.6158577,4.00608502 C33.3945474,4.00437415 33.2274669,4.00247928 33.120518,4.0003864 C31.0292653,4.03771838 27.9564488,6.77173966 28.0004677,8.54003103 L28.0004677,38.7174653 L37.2582532,38.7174653 L37.2582532,4.00049703 Z" id="Combined-Shape" fill="#FFFFFF"></path>
    </g>
</svg>