<?xml version="1.0" encoding="UTF-8"?>
<svg width="68px" height="68px" viewBox="0 0 68 68" version="1.1" xmlns="http://www.w3.org/2000/svg" xmlns:xlink="http://www.w3.org/1999/xlink">
    <!-- Generator: Sketch 53.2 (72643) - https://sketchapp.com -->
    <title>Icons / APPS / EXTERNAL / EH 1</title>
    <desc>Created with Sketch.</desc>
    <g id="Icons-/-APPS-/-EXTERNAL-/-EH-1" stroke="none" stroke-width="1" fill="none" fill-rule="evenodd">
        <g id="Group-9" fill-rule="nonzero">
            <polygon id="Fill-1" fill="#FFFFFF" points="-2.84217094e-14 67.6588253 67.6598766 67.6588253 67.6598766 5.68434189e-14 -2.84217094e-14 5.68434189e-14"></polygon>
            <polygon id="Fill-2" fill="#000000" points="48.7144594 32.4760258 35.1816428 32.4760258 35.1816428 18.947415 32.4752898 18.947415 32.4752898 32.4760258 18.9435247 32.4760258 18.9435247 35.1813273 32.4752898 35.1813273 32.4752898 48.7141438 35.1816428 48.7141438 35.1816428 35.1813273 48.7144594 35.1813273"></polygon>
            <polygon id="Fill-3" fill="#000000" points="51.4270156 48.7143539 54.1333685 48.7143539 54.1333685 18.9455225 51.4270156 18.9455225"></polygon>
            <polygon id="Fill-4" fill="#000000" points="29.7643105 45.999695 16.2346484 45.999695 16.2346484 21.6519806 29.7643105 21.6519806 29.7643105 18.9477305 13.5282954 18.9477305 13.5282954 48.7144594 29.7643105 48.7144594"></polygon>
        </g>
    </g>
</svg>