<?xml version="1.0" encoding="UTF-8"?>
<svg width="14px" height="16px" viewBox="0 0 14 16" version="1.1" xmlns="http://www.w3.org/2000/svg" xmlns:xlink="http://www.w3.org/1999/xlink">
    <!-- Generator: Sketch 53.2 (72643) - https://sketchapp.com -->
    <title>feedback</title>
    <desc>Created with Sketch.</desc>
    <g id="Mobile" stroke="none" stroke-width="1" fill="none" fill-rule="evenodd">
        <g id="Icons-/-FUNCTIONS-/-16PX-/-Bubble" transform="translate(-1.000000, 0.000000)" fill="#FFFFFF" fill-rule="nonzero">
            <path d="M8,0.549019608 C11.4945098,0.549019608 14.3333333,3.38784314 14.3333333,6.88235294 C14.3333333,10.2352941 11.9937255,13.707451 8.37254902,15.4509804 L8.37254902,13.2156863 L8,13.2156863 C4.5054902,13.2156863 1.66666667,10.3768627 1.66666667,6.88235294 C1.66666667,3.38784314 4.5054902,0.549019608 8,0.549019608 Z M5.75,5 C5.33578644,5 5,5.33578644 5,5.75 C5,6.16421356 5.33578644,6.5 5.75,6.5 L10.25,6.5 C10.6642136,6.5 11,6.16421356 11,5.75 C11,5.33578644 10.6642136,5 10.25,5 L5.75,5 Z M5.75,8 C5.33578644,8 5,8.33578644 5,8.75 C5,9.16421356 5.33578644,9.5 5.75,9.5 L10.25,9.5 C10.6642136,9.5 11,9.16421356 11,8.75 C11,8.33578644 10.6642136,8 10.25,8 L5.75,8 Z" id="Combined-Shape"></path>
        </g>
    </g>
</svg>