<?xml version="1.0" encoding="UTF-8"?>
<svg width="16px" height="16px" viewBox="0 0 16 16" version="1.1" xmlns="http://www.w3.org/2000/svg" xmlns:xlink="http://www.w3.org/1999/xlink">
    <!-- Generator: Sketch 53.2 (72643) - https://sketchapp.com -->
    <title>Icons / FUNCTIONS / 16PX / List</title>
    <desc>Created with Sketch.</desc>
    <g id="Icons-/-FUNCTIONS-/-16PX-/-List" stroke="none" stroke-width="1" fill="none" fill-rule="evenodd">
        <path d="M0,3 C-6.76353751e-17,2.44771525 0.44771525,2 1,2 L15,2 C15.5522847,2 16,2.44771525 16,3 C16,3.55228475 15.5522847,4 15,4 L1,4 C0.44771525,4 6.76353751e-17,3.55228475 0,3 Z M0,8 C-6.76353751e-17,7.44771525 0.44771525,7 1,7 L15,7 C15.5522847,7 16,7.44771525 16,8 C16,8.55228475 15.5522847,9 15,9 L1,9 C0.44771525,9 6.76353751e-17,8.55228475 0,8 Z M0,13 C-6.76353751e-17,12.4477153 0.44771525,12 1,12 L15,12 C15.5522847,12 16,12.4477153 16,13 C16,13.5522847 15.5522847,14 15,14 L1,14 C0.44771525,14 6.76353751e-17,13.5522847 0,13 Z" id="Combined-Shape" fill="#FFFFFF" fill-rule="nonzero"></path>
    </g>
</svg>