<?xml version="1.0" encoding="UTF-8"?>
<svg width="158px" height="63px" viewBox="0 0 158 63" version="1.1" xmlns="http://www.w3.org/2000/svg" xmlns:xlink="http://www.w3.org/1999/xlink">
    <!-- Generator: Sketch 55 (78076) - https://sketchapp.com -->
    <title>Group 2 Copy</title>
    <desc>Created with Sketch.</desc>
    <defs>
        <polygon id="path-1" points="2.3519824e-05 0.0250118044 38.0180158 0.0250118044 38.0180158 47.9999919 2.3519824e-05 47.9999919"></polygon>
        <polygon id="path-3" points="2.41244388e-05 0.024565165 38.994154 0.024565165 38.994154 47.1428492 2.41244388e-05 47.1428492"></polygon>
        <polygon id="path-5" points="2.41237113e-05 0.024969697 38.994154 0.024969697 38.994154 47.9191838 2.41237113e-05 47.9191838"></polygon>
    </defs>
    <g id="Page-1" stroke="none" stroke-width="1" fill="none" fill-rule="evenodd">
        <g id="1-Creating-1-Copy-2" transform="translate(-365.000000, -337.000000)">
            <g id="Group-2-Copy" transform="translate(365.000000, 337.000000)">
                <g id="Page-1" transform="translate(136.532490, 34.222016) rotate(-340.000000) translate(-136.532490, -34.222016) translate(117.032490, 10.222016)">
                    <g id="Group-3">
                        <mask id="mask-2" fill="white">
                            <use xlink:href="#path-1"></use>
                        </mask>
                        <g id="Clip-2"></g>
                        <path d="M35.9059356,44.7289497 C35.9059356,45.3297187 35.4317759,45.8193511 34.8498955,45.8193511 L3.16814381,45.8193511 C2.58626336,45.8193511 2.11210371,45.3297187 2.11210371,44.7289497 L2.11210371,3.29604587 C2.11210371,2.6952769 2.58626336,2.20572546 3.16814381,2.20572546 L23.6271763,2.20572546 C23.7053405,2.20572546 23.7771544,2.23405599 23.8521042,2.25040675 L23.8521042,12.018771 C23.8521042,13.2213612 24.7994043,14.1994118 25.9641844,14.1994118 L35.8468224,14.1994118 C35.8743406,14.2964641 35.9059356,14.3935164 35.9059356,14.4971251 L35.9059356,44.7289497 Z M25.9641844,4.11164115 L33.8867587,12.018771 L25.9641844,12.018771 L25.9641844,4.11164115 Z M37.051743,12.145287 L25.8291022,0.944207757 C25.237657,0.354285329 24.4487237,0.0250037099 23.6271763,0.0250037099 L3.16814381,0.0250037099 C1.41826891,0.0250037099 2.3519824e-05,1.48936796 2.3519824e-05,3.29604587 L2.3519824e-05,44.7289497 C2.3519824e-05,46.5356277 1.41826891,47.9999919 3.16814381,47.9999919 L34.8498955,47.9999919 C36.5998488,47.9999919 38.0180158,46.5356277 38.0180158,44.7289497 L38.0180158,14.4971251 C38.0180158,13.6095703 37.6696088,12.7612735 37.051743,12.145287 L37.051743,12.145287 Z" id="Fill-1" fill-opacity="0.95" fill="#FFFFFF" mask="url(#mask-2)"></path>
                    </g>
                    <path d="M11.623809,26.7025979 L9.8298539,26.7025979 L9.8298539,24.5009419 L11.623809,24.5009419 C12.3864933,24.5009419 12.7778916,25.0232533 12.7778916,25.6071781 C12.7778916,26.1910228 12.3971829,26.7025979 11.623809,26.7025979 M11.623809,22.9565217 L8.22134387,22.9565217 L8.22134387,30.2608696 L9.8298539,30.2608696 L9.8298539,28.194138 L11.623809,28.194138 C13.4594931,28.1736269 14.3873518,27.0371849 14.3873518,25.5747289 C14.3873518,24.1663549 13.4690742,22.9565217 11.623809,22.9565217" id="Fill-4" fill-opacity="0.95" fill="#FFFFFF"></path>
                    <polygon id="Fill-6" fill-opacity="0.95" fill="#FFFFFF" points="20.0539029 25.4085572 20.1514441 27.7041155 16.7177848 22.9565217 15.4150198 22.9565217 15.4150198 30.2608696 16.9511816 30.2608696 16.9511816 27.9858223 16.8928511 25.5855453 20.277217 30.2608696 21.5810277 30.2608696 21.5810277 22.9565217 20.0539029 22.9565217"></polygon>
                    <path d="M26.9678801,27.8668957 L28.5346225,27.8668957 L28.5346225,29.1288317 C28.0278688,29.5914609 27.5959175,29.6811666 27.1357891,29.6811666 C25.5875672,29.6811666 25.0710849,28.2735561 25.0710849,27.146741 C25.0710849,25.4233869 25.8874974,24.5669002 27.1357891,24.5669002 C27.661928,24.5669002 28.2715891,24.8034051 28.6753634,25.2660342 L29.5858914,24.1730426 C28.8355616,23.2489954 28.0278688,22.9565217 27.136798,22.9565217 C24.7245293,22.9565217 23.6363636,24.9281454 23.6363636,27.1478656 C23.6363636,29.1987278 24.593517,31.3043478 27.1280783,31.3043478 C28.3385365,31.3043478 29.239408,30.8091063 29.8023715,29.8396439 L29.8023715,26.4033164 L26.968889,26.4033164 L26.968889,27.8668957 L26.9678801,27.8668957 Z" id="Fill-8" fill-opacity="0.95" fill="#FFFFFF"></path>
                </g>
                <g id="Page-1" transform="translate(26.532490, 34.222016) rotate(-20.000000) translate(-26.532490, -34.222016) translate(7.032490, 10.222016)">
                    <g id="Group-3">
                        <mask id="mask-4" fill="white">
                            <use xlink:href="#path-3"></use>
                        </mask>
                        <g id="Clip-2"></g>
                        <path d="M36.8278447,43.9302185 C36.8278447,44.5202595 36.3415107,45.0011484 35.7446901,45.0011484 L3.24948804,45.0011484 C2.65266742,45.0011484 2.1663334,44.5202595 2.1663334,43.9302185 L2.1663334,3.23718791 C2.1663334,2.64714695 2.65266742,2.16633751 3.24948804,2.16633751 L24.23382,2.16633751 C24.3139911,2.16633751 24.3876489,2.19416213 24.4645231,2.21022091 L24.4645231,11.8041501 C24.4645231,12.9852655 25.4361458,13.9458509 26.6308324,13.9458509 L36.7672138,13.9458509 C36.7954386,14.0411701 36.8278447,14.1364893 36.8278447,14.2382479 L36.8278447,43.9302185 Z M26.6308324,4.03821898 L34.7568241,11.8041501 L26.6308324,11.8041501 L26.6308324,4.03821898 Z M38.0030715,11.9284069 L26.4922819,0.927346904 C25.8856509,0.347958805 25.0764612,0.0245572151 24.23382,0.0245572151 L3.24948804,0.0245572151 C1.45468392,0.0245572151 2.41244388e-05,1.4627721 2.41244388e-05,3.23718791 L2.41244388e-05,43.9302185 C2.41244388e-05,45.7046343 1.45468392,47.1428492 3.24948804,47.1428492 L35.7446901,47.1428492 C37.5395746,47.1428492 38.994154,45.7046343 38.994154,43.9302185 L38.994154,14.2382479 C38.994154,13.3665423 38.6368014,12.5333936 38.0030715,11.9284069 L38.0030715,11.9284069 Z" id="Fill-1" fill-opacity="0.95" fill="#FFFFFF" mask="url(#mask-4)"></path>
                    </g>
                    <path d="M27.2913202,21.4935283 C27.1906287,21.4567542 27.1007141,21.4340313 27.0182789,21.4285714 C26.816896,21.4285714 26.6456722,21.500032 26.5016318,21.6449605 L21.9581291,26.0652398 L21.9581291,23.8123844 C21.9581291,23.5171478 21.900706,23.2391741 21.7847339,22.9774196 C21.6688421,22.7124533 21.5128186,22.4874729 21.3178696,22.2949308 C21.1238856,22.1056806 20.8953191,21.9520805 20.6320897,21.8352545 C20.3677343,21.7206766 20.0893046,21.6611797 19.7946292,21.6611797 L12.5709794,21.6611797 C12.276304,21.6611797 11.9968288,21.7206766 11.7346449,21.8352545 C11.4702895,21.9520805 11.2406775,22.1056806 11.0434766,22.2949308 C10.8462756,22.4863488 10.6892066,22.7124533 10.5733148,22.9774196 C10.4574231,23.241342 10.4,23.5181916 10.4,23.8135085 L10.4,31.0242035 C10.4,31.3249 10.4574231,31.6050416 10.5733148,31.8657523 C10.6892066,32.1241346 10.8462756,32.3545749 11.0434766,32.5557084 C11.2406775,32.7547542 11.4714154,32.913734 11.7346449,33.0283921 C11.9978743,33.1451378 12.276304,33.2025472 12.5709794,33.2025472 L19.7946292,33.2025472 C20.095819,33.2025472 20.3764202,33.1451378 20.6364326,33.0283921 C20.8963647,32.913734 21.1238856,32.7547542 21.3178696,32.5557084 C21.5128186,32.3545749 21.6677162,32.1231711 21.7847339,31.8602924 C21.900706,31.5974941 21.9581291,31.3183963 21.9581291,31.0253276 L21.9581291,28.7994506 L26.5016318,33.2219781 C26.6392382,33.3604028 26.8114271,33.4285714 27.0183594,33.4285714 C27.0995881,33.4285714 27.1906287,33.4090603 27.2913202,33.3712424 C27.5859956,33.2468688 27.7333333,33.03056 27.7333333,32.7233598 L27.7333333,22.1402868 C27.7333333,21.8342107 27.5859956,21.6179019 27.2913202,21.4935283" id="Fill-4" fill-opacity="0.95" fill="#FFFFFF"></path>
                </g>
                <g id="Page-1" transform="translate(62.000000, 0.000000)">
                    <g id="Group-3" transform="translate(0.000000, 0.055838)">
                        <mask id="mask-6" fill="white">
                            <use xlink:href="#path-5"></use>
                        </mask>
                        <g id="Clip-2"></g>
                        <path d="M36.8278447,44.6536485 C36.8278447,45.2534061 36.3415107,45.7422141 35.7446901,45.7422141 L3.24948804,45.7422141 C2.65266742,45.7422141 2.1663334,45.2534061 2.1663334,44.6536485 L2.1663334,3.29049697 C2.1663334,2.69073939 2.65266742,2.20201212 3.24948804,2.20201212 L24.23382,2.20201212 C24.3139911,2.20201212 24.3876489,2.23029495 24.4645231,2.24661818 L24.4645231,11.9985374 C24.4645231,13.199103 25.4361458,14.1755071 26.6308324,14.1755071 L36.7672138,14.1755071 C36.7954386,14.272396 36.8278447,14.3692848 36.8278447,14.4727192 L36.8278447,44.6536485 Z M26.6308324,4.10471919 L34.7568241,11.9985374 L26.6308324,11.9985374 L26.6308324,4.10471919 Z M38.0030715,12.1248404 L26.4922819,0.942618182 C25.8856509,0.353688889 25.0764612,0.0249616162 24.23382,0.0249616162 L3.24948804,0.0249616162 C1.45468392,0.0249616162 2.41237113e-05,1.48686061 2.41237113e-05,3.29049697 L2.41237113e-05,44.6536485 C2.41237113e-05,46.4572848 1.45468392,47.9191838 3.24948804,47.9191838 L35.7446901,47.9191838 C37.5395746,47.9191838 38.994154,46.4572848 38.994154,44.6536485 L38.994154,14.4727192 C38.994154,13.5866586 38.6368014,12.7397899 38.0030715,12.1248404 L38.0030715,12.1248404 Z" id="Fill-1" fill="#FFFFFF" mask="url(#mask-6)"></path>
                    </g>
                    <path d="M10.9411082,24.4763717 L12.9720835,24.4763717 L12.9720835,27.1802101 C12.9720835,28.3166141 12.3330464,28.949099 11.2649289,28.949099 C10.333432,28.949099 9.65217835,28.497301 9.60015155,27.2858263 L8.01868144,27.2858263 C8.04039278,29.5281697 9.23403402,30.5066747 11.2866402,30.5066747 C13.4540753,30.5066747 14.6065454,29.1178263 14.6065454,27.1921697 L14.6065454,22.9818263 L10.9411082,22.9818263 L10.9411082,24.4763717 Z" id="Fill-4" fill="#FFFFFF"></path>
                    <path d="M20.1253188,26.7600646 L18.3034961,26.7600646 L18.3034961,24.5395394 L20.1253188,24.5395394 C20.8998507,24.5395394 21.2973291,25.0663273 21.2973291,25.6552566 C21.2984548,26.2441051 20.9116713,26.7600646 20.1253188,26.7600646 M20.1253188,22.9818828 L16.6699992,22.9818828 L16.6699992,30.3488323 L18.3034961,30.3488323 L18.3034961,28.2643879 L20.1253188,28.2643879 C21.9895188,28.243701 22.9317909,27.0975192 22.9317909,25.6225293 C22.9317909,24.2020848 22.000294,22.9818828 20.1253188,22.9818828" id="Fill-6" fill="#FFFFFF"></path>
                    <path d="M27.8126289,27.3489616 L29.5608742,27.3489616 L29.5608742,28.5277899 C28.9954144,28.9599515 28.5134227,29.0437495 27.9999897,29.0437495 C26.2724103,29.0437495 25.6971402,27.7288404 25.6971402,26.6762343 C25.6971402,25.0663758 26.608132,24.2662949 27.9999897,24.2662949 C28.5870804,24.2662949 29.2673691,24.4872242 29.7179196,24.9193859 L30.7328041,23.8983758 C29.8955505,23.0351838 28.9954144,22.7619717 27.9999897,22.7619717 C25.3093918,22.7619717 24.0941196,24.6037495 24.0941196,26.6772848 C24.0941196,28.5930828 25.1620763,30.5600323 27.9902598,30.5600323 C29.3410268,30.5600323 30.3461814,30.0974061 30.9743629,29.1917899 L30.9743629,25.9817697 L27.8126289,25.9817697 L27.8126289,27.3489616 Z" id="Fill-8" fill="#FFFFFF"></path>
                </g>
            </g>
        </g>
    </g>
</svg>