<?xml version="1.0" encoding="UTF-8"?>
<svg width="68px" height="68px" viewBox="0 0 68 68" version="1.1" xmlns="http://www.w3.org/2000/svg" xmlns:xlink="http://www.w3.org/1999/xlink">
    <!-- Generator: Sketch 53.2 (72643) - https://sketchapp.com -->
    <title>Icons / APPS / EXTERNAL / JTL 1</title>
    <desc>Created with Sketch.</desc>
    <g id="Icons-/-APPS-/-EXTERNAL-/-JTL-1" stroke="none" stroke-width="1" fill="none" fill-rule="evenodd">
        <path d="M27.0262931,8 L47.609395,8 L47.609395,16.7616229 L42.7157831,16.7616229 L42.7157831,59.3606282 L31.9207906,59.3606282 L31.9207906,16.7616229 L27.0262931,16.7616229 L27.0262931,8 Z M25.0040253,48.2050043 C25.0040253,57.8168927 23.3294288,59.5625 12.8647506,59.5625 C2.39918689,59.5625 1,57.9194195 1,48.2050043 L1,37.2302165 L11.794107,37.2302165 L11.794107,48.2050043 C11.794107,48.9624653 11.6090247,50.580798 13.0489474,50.580798 C14.3046733,50.580798 14.2099183,49.0561536 14.2099183,48.2050043 L14.2099183,8.00035354 L25.0040253,8.00035354 L25.0040253,48.2050043 Z M61.2013444,50.3119303 L67,50.3119303 L67,59.360805 L50.4072375,59.360805 L50.4072375,8.00017677 L61.2013444,8.00017677 L61.2013444,50.3119303 Z" id="Combined-Shape" fill="#F9F9F9"></path>
    </g>
</svg>