<?xml version="1.0" encoding="UTF-8"?>
<svg width="16px" height="16px" viewBox="0 0 16 16" version="1.1" xmlns="http://www.w3.org/2000/svg" xmlns:xlink="http://www.w3.org/1999/xlink">
    <!-- Generator: Sketch 53.2 (72643) - https://sketchapp.com -->
    <title>1</title>
    <desc>Created with Sketch.</desc>
    <defs>
        <path d="M4.798218,12.8 C3.9185447,12.8 3.20680903,13.52 3.20680903,14.4 C3.20680903,15.28 3.9185447,16 4.798218,16 C5.67789131,16 6.39762401,15.28 6.39762401,14.4 C6.39762401,13.52 5.67789131,12.8 4.798218,12.8 Z M0,0.8 C0,1.24 0.35986635,1.6 0.799703001,1.6 L1.599406,1.6 L4.4783368,7.672 L3.39873775,9.624 C2.81495456,10.696 3.58266944,12 4.798218,12 L13.594951,12 C14.0347877,12 14.394654,11.64 14.394654,11.2 C14.394654,10.76 14.0347877,10.4 13.594951,10.4 L4.798218,10.4 L5.67789131,8.8 L11.6356787,8.8 C12.2354559,8.8 12.7632599,8.472 13.0351589,7.976 L15.8980957,2.784 C16.1939858,2.256 15.8101283,1.6 15.202354,1.6 L3.36674963,1.6 L2.83094862,0.456 C2.70299614,0.176 2.41510306,0 2.11121592,0 L0.799703001,0 C0.35986635,0 0,0.36 0,0.8 Z M12.795248,12.8 C11.9155747,12.8 11.203839,13.52 11.203839,14.4 C11.203839,15.28 11.9155747,16 12.795248,16 C13.6749213,16 14.394654,15.28 14.394654,14.4 C14.394654,13.52 13.6749213,12.8 12.795248,12.8 Z" id="path-1"></path>
    </defs>
    <g id="Page-1" stroke="none" stroke-width="1" fill="none" fill-rule="evenodd">
        <g id="Icons-/-CONNECT-/-SECTIONS-/-Cart-16x16">
            <mask id="mask-2" fill="white">
                <use xlink:href="#path-1"></use>
            </mask>
            <use id="icon/action/shopping_cart_24px" fill="#FFFFFF" fill-rule="nonzero" xlink:href="#path-1"></use>
        </g>
    </g>
</svg>