<?xml version="1.0" encoding="UTF-8"?>
<svg width="14px" height="14px" viewBox="0 0 14 14" version="1.1" xmlns="http://www.w3.org/2000/svg" xmlns:xlink="http://www.w3.org/1999/xlink">
    <!-- Generator: Sketch 53.2 (72643) - https://sketchapp.com -->
    <title>logout</title>
    <desc>Created with Sketch.</desc>
    <g id="Mobile" stroke="none" stroke-width="1" fill="none" fill-rule="evenodd">
        <g id="Icons-/-FUNCTIONS-/-16PX-/-Logout" transform="translate(-1.000000, -1.000000)" fill="#FFFFFF">
            <path d="M13.0085117,8.58332422 L8,8.58332422 C7.67742578,8.58332422 7.41667578,8.322 7.41667578,8 C7.41667578,7.678 7.67742578,7.41667578 8,7.41667578 L13.0085117,7.41667578 L11.6709258,6.07907422 C11.4428242,5.851 11.4428242,5.48232422 11.6709258,5.25425 C11.899,5.02617578 12.2676758,5.02617578 12.49575,5.25425 L14.8196035,7.57810354 C14.8662493,7.62267037 14.9055043,7.67489726 14.9353611,7.73275951 C15.0217468,7.90000115 15.0217468,8.09999885 14.9353611,8.26724049 C14.9055043,8.32510274 14.8662493,8.37732963 14.8196035,8.42189646 L12.49575,10.74575 C12.382,10.8595 12.2326758,10.9166758 12.0833242,10.9166758 C11.934,10.9166758 11.7846758,10.8595 11.6709258,10.74575 C11.4428242,10.5176758 11.4428242,10.149 11.6709258,9.92092578 L13.0085117,8.58332422 Z M8,9.75 L10.3333242,9.75 L10.3333242,14.4166758 C10.3333242,14.7386758 10.0725742,15 9.75,15 L1.58332422,15 C1.26075,15 1,14.7386758 1,14.4166758 L1,1.58332422 C1,1.26132422 1.26075,1 1.58332422,1 L9.75,1 C10.0725742,1 10.3333242,1.26132422 10.3333242,1.58332422 L10.3333242,6.25 L8,6.25 C7.03517578,6.25 6.25,7.03517578 6.25,8 C6.25,8.96482422 7.03517578,9.75 8,9.75 Z" id="Combined-Shape"></path>
        </g>
    </g>
</svg>