<?xml version="1.0" encoding="UTF-8"?>
<svg width="31px" height="30px" viewBox="0 0 31 30" version="1.1" xmlns="http://www.w3.org/2000/svg" xmlns:xlink="http://www.w3.org/1999/xlink">
    <!-- Generator: Sketch 55.1 (78136) - https://sketchapp.com -->
    <title>1</title>
    <desc>Created with Sketch.</desc>
    <g id="devices-screens" stroke="none" stroke-width="1" fill="none" fill-rule="evenodd">
        <g id="6" transform="translate(-903.000000, -666.000000)">
            <g id="Icons-/-APPS-Main-/-MARKETING-1" transform="translate(902.162630, 665.000000)">
                <g id="Group" transform="translate(0.000000, 1.000000)">
                    <polygon id="Path-2" fill="#999999" points="13.9084967 17.8062284 13.9084967 23.1695502 16.5228758 21.0242215"></polygon>
                    <path d="M1.43764454,11.3517127 C1.43764454,11.3517127 -0.225300701,10.3577478 1.98096029,9.71626907 C4.18722128,9.07517519 30.4708881,0.352681139 30.4708881,0.352681139 C30.4708881,0.352681139 31.7175215,-0.128331679 31.6856746,0.256478576 C31.6538277,0.64128883 14.131511,18.3425606 14.131511,18.3425606 L1.43764454,11.3517127 Z" id="Fill-1" fill="#E4E4E4"></path>
                    <path d="M13.9084967,18.2526847 L22.8897551,29.1643844 C22.8897551,29.1643844 24.1613364,30.5363969 24.6052953,28.4412283 C25.0496382,26.3452818 31.5269834,1.22932264 31.5269834,1.22932264 C31.5269834,1.22932264 31.9071904,0.028860319 31.4928032,0.111328891 C31.216545,0.166826609 25.3551095,6.21394523 13.9084967,18.2526847 Z" id="Fill-1" fill="#FFFFFF"></path>
                </g>
            </g>
        </g>
    </g>
</svg>