<?xml version="1.0" encoding="UTF-8"?>
<svg width="16px" height="16px" viewBox="0 0 16 16" version="1.1" xmlns="http://www.w3.org/2000/svg" xmlns:xlink="http://www.w3.org/1999/xlink">
    <!-- Generator: Sketch 53.2 (72643) - https://sketchapp.com -->
    <title>Icons / FUNCTIONS / Tables / pic</title>
    <desc>Created with Sketch.</desc>
    <g id="Icons-/-FUNCTIONS-/-Tables-/-pic" stroke="none" stroke-width="1" fill="none" fill-rule="evenodd">
        <path d="M15.1747368,2.52631579 L13.4736842,2.52631579 L13.4736842,0.825263158 C13.4736842,0.370526316 13.1031579,0 12.6484211,0 L12.6231579,0 C12.16,0 11.7894737,0.370526316 11.7894737,0.825263158 L11.7894737,2.52631579 L10.0968421,2.52631579 C9.64210526,2.52631579 9.27157895,2.89684211 9.26315789,3.35157895 L9.26315789,3.37684211 C9.26315789,3.84 9.63368421,4.21052632 10.0968421,4.21052632 L11.7894737,4.21052632 L11.7894737,5.90315789 C11.7894737,6.35789474 12.16,6.73684211 12.6231579,6.72842105 L12.6484211,6.72842105 C13.1031579,6.72842105 13.4736842,6.35789474 13.4736842,5.90315789 L13.4736842,4.21052632 L15.1747368,4.21052632 C15.6294737,4.21052632 16,3.84 16,3.38526316 L16,3.35157895 C16,2.89684211 15.6294737,2.52631579 15.1747368,2.52631579 Z M10.9473684,5.90315789 L10.9473684,5.05263158 L10.0968421,5.05263158 C9.65052632,5.05263158 9.22947368,4.87578947 8.90947368,4.56421053 C8.59789474,4.24421053 8.42105263,3.82315789 8.42105263,3.35157895 C8.42105263,3.04842105 8.50526316,2.77052632 8.64842105,2.52631579 L1.68421053,2.52631579 C0.757894737,2.52631579 0,3.28421053 0,4.21052632 L0,14.3157895 C0,15.2421053 0.757894737,16 1.68421053,16 L11.7894737,16 C12.7157895,16 13.4736842,15.2421053 13.4736842,14.3157895 L13.4736842,7.34315789 C13.2210526,7.48631579 12.9347368,7.57894737 12.6147368,7.57894737 C11.6968421,7.57052632 10.9473684,6.82105263 10.9473684,5.90315789 Z M10.9136842,14.3157895 L2.52631579,14.3157895 C2.18105263,14.3157895 1.97894737,13.92 2.18947368,13.6421053 L3.85684211,11.4273684 C4.03368421,11.1915789 4.37894737,11.2084211 4.54736842,11.4442105 L5.89473684,13.4736842 L8.09263158,10.5431579 C8.26105263,10.3242105 8.58947368,10.3157895 8.75789474,10.5347368 L11.2421053,13.6336842 C11.4610526,13.9115789 11.2673684,14.3157895 10.9136842,14.3157895 L10.9136842,14.3157895 Z" id="icon/image/add_photo_alternate_24px" fill="#FFFFFF" fill-rule="nonzero"></path>
    </g>
</svg>