<?xml version="1.0" encoding="UTF-8"?>
<svg width="24px" height="24px" viewBox="0 0 24 24" version="1.1" xmlns="http://www.w3.org/2000/svg" xmlns:xlink="http://www.w3.org/1999/xlink">
    <!-- Generator: Sketch 53.2 (72643) - https://sketchapp.com -->
    <title>Icons / FUNCTIONS / EDITOR / 21PX / image</title>
    <desc>Created with Sketch.</desc>
    <g id="Icons-/-FUNCTIONS-/-EDITOR-/-21PX-/-image" stroke="none" stroke-width="1" fill="none" fill-rule="evenodd">
        <g id="---►-ICON" transform="translate(1.000000, 4.000000)" fill="#FFFFFF" fill-rule="nonzero">
            <path d="M4.71995192,16.365097 L17.2800481,16.365097 C19.239612,16.365097 20.8214286,14.7987234 20.8214286,12.8582905 L20.8214286,3.5068065 C20.8214286,1.56637357 19.239612,0 17.2800481,0 L4.71995192,0 C2.76038805,0 1.17857143,1.56637357 1.17857143,3.5068065 L1.17857143,12.8582905 C1.17857143,14.7987234 2.76038805,16.365097 4.71995192,16.365097 Z M2.59512363,12.8582905 L2.59512363,10.8944789 L8.78073489,6.89671946 L16.5245536,14.9623744 L4.71995192,14.9623744 C3.53949176,14.9623744 2.59512363,14.027226 2.59512363,12.8582905 Z M18.2480254,14.7285873 L13.0303915,9.28134788 L15.5093578,6.94347688 L19.4048764,10.6606918 L19.4048764,12.8582905 C19.4048764,13.6765454 18.9326923,14.3779067 18.2480254,14.7285873 Z M4.71995192,1.4027226 L17.2800481,1.4027226 C18.4605082,1.4027226 19.4048764,2.337871 19.4048764,3.5068065 L19.4048764,8.72025884 L16.0051511,5.49399686 C15.7218407,5.23683105 15.296875,5.23683105 15.0371738,5.49399686 L12.0388049,8.27606335 L9.39457418,5.51737557 C9.15848214,5.28358847 8.78073489,5.23683105 8.49742445,5.42386073 L2.59512363,9.23459046 L2.59512363,3.5068065 C2.59512363,2.337871 3.53949176,1.4027226 4.71995192,1.4027226 Z" id="Shape"></path>
        </g>
    </g>
</svg>