<?xml version="1.0" encoding="UTF-8"?>
<svg width="16px" height="16px" viewBox="0 0 16 16" version="1.1" xmlns="http://www.w3.org/2000/svg" xmlns:xlink="http://www.w3.org/1999/xlink">
    <!-- Generator: Sketch 53.2 (72643) - https://sketchapp.com -->
    <title>Icons / FUNCTIONS / 16PX / Notification</title>
    <desc>Created with Sketch.</desc>
    <g id="Icons-/-FUNCTIONS-/-16PX-/-Notification" stroke="none" stroke-width="1" fill="none" fill-rule="evenodd">
        <path d="M7.38993651,16 C8.20854116,16 8.87086674,15.3376744 8.87086674,14.5190698 L5.90900628,14.5190698 C5.90900628,15.3376744 6.57133186,16 7.38993651,16 Z M13.5592388,12.4948837 L12.5992388,11.5348837 L12.5992388,7.06976744 C12.5992388,4.57674419 10.8429598,2.49302326 8.50621558,1.98697674 L8.50621558,1.11627907 C8.50621558,0.498604651 8.00761093,0 7.38993651,0 C6.77226209,0 6.27365744,0.498604651 6.27365744,1.11627907 L6.27365744,1.98697674 C3.93691326,2.49302326 2.18063419,4.57674419 2.18063419,7.06976744 L2.18063419,11.5348837 L1.22063419,12.4948837 C0.751796977,12.9637209 1.07923884,13.7674419 1.74156442,13.7674419 L13.0308667,13.7674419 C13.7006342,13.7674419 14.028076,12.9637209 13.5592388,12.4948837 Z" id="icon/alert/notification_important_24px" fill="#FFFFFF" fill-rule="nonzero"></path>
    </g>
</svg>