<?xml version="1.0" encoding="UTF-8"?>
<svg width="16px" height="16px" viewBox="0 0 16 16" version="1.1" xmlns="http://www.w3.org/2000/svg" xmlns:xlink="http://www.w3.org/1999/xlink">
    <!-- Generator: Sketch 53.2 (72643) - https://sketchapp.com -->
    <title>1</title>
    <desc>Created with Sketch.</desc>
    <defs>
        <path d="M15.528,7.664 L8.328,0.464 C8.04,0.176 7.64,0 7.2,0 L1.6,0 C0.72,0 0,0.72 0,1.6 L0,7.2 C0,7.64 0.176,8.04 0.472,8.336 L7.672,15.536 C7.96,15.824 8.36,16 8.8,16 C9.24,16 9.64,15.824 9.928,15.528 L15.528,9.928 C15.824,9.64 16,9.24 16,8.8 C16,8.36 15.816,7.952 15.528,7.664 Z M2.8,4 C2.136,4 1.6,3.464 1.6,2.8 C1.6,2.136 2.136,1.6 2.8,1.6 C3.464,1.6 4,2.136 4,2.8 C4,3.464 3.464,4 2.8,4 Z" id="path-1"></path>
    </defs>
    <g id="Page-1" stroke="none" stroke-width="1" fill="none" fill-rule="evenodd">
        <g id="2-details-5" transform="translate(-1212.000000, -758.000000)">
            <g id="Icons-/-CONNECT-/-SECTIONS-/-Offer-16x16" transform="translate(1212.000000, 758.000000)">
                <mask id="mask-2" fill="white">
                    <use xlink:href="#path-1"></use>
                </mask>
                <use id="icon/maps/local_offer_24px" fill="#FFFFFF" fill-rule="nonzero" xlink:href="#path-1"></use>
            </g>
        </g>
    </g>
</svg>