<?xml version="1.0" encoding="UTF-8"?>
<svg width="68px" height="68px" viewBox="0 0 68 68" version="1.1" xmlns="http://www.w3.org/2000/svg" xmlns:xlink="http://www.w3.org/1999/xlink">
    <!-- Generator: Sketch 53.2 (72643) - https://sketchapp.com -->
    <title>Icons / APPS / EXTERNAL / OXID 1</title>
    <desc>Created with Sketch.</desc>
    <g id="Icons-/-APPS-/-EXTERNAL-/-OXID-1" stroke="none" stroke-width="1" fill="none" fill-rule="evenodd">
        <path d="M11.279272,21 L11.279272,21 C14.2145519,21 16.2163664,21.0664925 17.2838221,21.2012507 C18.8854523,21.4016149 19.819811,22.1392388 20.2199953,23.4788417 C20.4236604,24.3494507 20.5576507,25.8246984 20.5576507,27.9684178 C20.5576507,30.1130237 20.4236604,31.5873848 20.2199953,32.4579938 C19.819811,33.7984833 18.8854523,34.5361072 17.2838221,34.7364713 C16.2163664,34.8712295 14.2145519,34.9386086 11.3498402,34.9386086 C8.3430988,34.9386086 6.34128435,34.8712295 5.27382863,34.7364713 C3.67219842,34.5361072 2.66727148,33.7984833 2.33854872,32.4579938 C2.07146147,31.5873848 2,30.0456446 2,27.9019252 C2,25.8246984 2.07146147,24.3494507 2.33854872,23.4788417 C2.66727148,22.1392388 3.67219842,21.4016149 5.27382863,21.2012507 C6.34128435,21.0664925 8.3430988,21 11.279272,21 L11.279272,21 Z M11.279272,24.551588 L11.279272,24.551588 C9.08183176,24.551588 7.80981758,24.6189671 7.33817187,24.6854596 C6.87545885,24.8193313 6.53691013,25.1544536 6.34128435,25.6234477 C6.20818736,26.0250626 6.13672589,26.9639372 6.13672589,28.3044267 C6.13672589,29.1076565 6.13672589,29.7114088 6.27071615,30.1130237 C6.40381314,30.7832684 6.87545885,31.1857699 7.73835611,31.2522625 C8.3430988,31.3861341 9.54454478,31.3861341 11.279272,31.3861341 C12.9514704,31.3861341 14.0814549,31.3861341 14.6147361,31.3196416 C15.1489106,31.2522625 15.5490949,31.1183908 15.8161821,30.9171401 C16.0832694,30.7158893 16.2163664,30.4481461 16.2869346,30.1130237 C16.4209248,29.7114088 16.4209248,29.1741491 16.4209248,28.3044267 C16.4209248,27.3664387 16.4209248,26.6288148 16.3503566,26.2263133 C16.2869346,25.7573193 16.1538376,25.4230835 16.0207406,25.1544536 C15.7536533,24.8867104 15.4159979,24.6854596 14.8818234,24.6189671 C14.4200036,24.551588 13.2185577,24.551588 11.279272,24.551588 L11.279272,24.551588 Z M21.0909319,21.2012507 L21.0909319,21.2012507 L26.696191,21.2012507 L30.8954457,25.95857 L35.1027398,21.2012507 L40.7785671,21.2012507 L34.3023713,27.9019252 L41.1081832,34.7364713 L35.2992589,34.7364713 L30.8954457,29.9117729 L26.4916326,34.7364713 L20.5576507,34.7364713 L27.4965595,27.9019252 L21.0909319,21.2012507 Z M41.9085516,21.2012507 L41.9085516,21.2012507 L46.249836,21.2012507 L46.249836,34.7364713 L41.9085516,34.7364713 L41.9085516,21.2012507 Z M48.1810823,34.7364713 L48.1810823,34.7364713 L48.1810823,21.2012507 L57.922174,21.2012507 L61.3290996,21.2012507 C61.8623808,21.2677433 62.3965553,21.3342358 62.9932586,21.4016149 C64.3269083,21.7376239 65.1987383,22.4734746 65.6614513,23.7474716 C65.7945483,24.215579 65.8660097,24.7519522 65.9285385,25.2883253 C66,25.8246984 66,26.6288148 66,27.7680536 C66,28.9737849 66,29.9117729 65.9285385,30.5155252 C65.8660097,31.1183908 65.7329128,31.7212565 65.5998158,32.2576296 C65.1987383,33.3968684 64.3269083,34.1336057 63.0638268,34.468728 C62.5296523,34.6025997 61.8623808,34.6690922 61.1960026,34.6690922 C60.5287311,34.7364713 59.4603822,34.7364713 57.922174,34.7364713 L48.1810823,34.7364713 Z M52.2543861,31.3196416 L52.2543861,24.551588 L57.922174,24.551588 C59.1941882,24.551588 59.9945566,24.6189671 60.4572697,24.6854596 C60.8574539,24.7519522 61.1960026,24.8867104 61.3916284,25.1544536 C61.5961869,25.3548178 61.7918126,25.6908268 61.8623808,26.1589342 C61.9249096,26.5614357 61.9249096,27.1643014 61.9249096,28.0357969 C61.9249096,28.9064058 61.9249096,29.510158 61.7918126,29.9117729 C61.7301771,30.3816535 61.5961869,30.6493968 61.3290996,30.849761 C61.1245412,31.0510117 60.7958184,31.1183908 60.2616439,31.1857699 C59.7899982,31.2522625 58.9896297,31.3196416 57.9927422,31.3196416 L52.2543861,31.3196416 Z M27.0248245,45.6594218 C27.1579215,45.4581711 27.2293829,45.2569203 27.2919117,44.921798 L28.2977319,44.921798 C28.2977319,45.6594218 28.0306447,46.1949084 27.4964702,46.5309173 C27.0248245,46.7986606 26.091359,46.9999113 24.8273843,46.9999113 C23.7608218,46.9999113 22.9595601,46.9325322 22.4262788,46.8660397 C21.8921043,46.7986606 21.4919201,46.664789 21.2248329,46.3970457 C20.5575614,45.9945442 20.2199059,45.0565562 20.2199059,43.7160666 C20.2199059,42.7780786 20.3530029,42.1078338 20.6200902,41.6388398 C20.8871774,41.1698458 21.2873616,40.9021025 21.7581141,40.7008518 C22.2208271,40.5669801 23.0220889,40.499601 24.161006,40.499601 C25.2909906,40.499601 26.0288302,40.5669801 26.5621115,40.6334727 C27.0248245,40.7673443 27.4250087,40.9685951 27.692096,41.3037174 C27.9591832,41.5723473 28.0922802,41.9074697 28.1637417,42.3090846 C28.2977319,42.644207 28.2977319,43.1805801 28.3593675,43.9838099 L21.2873616,43.9838099 C21.3579299,44.7214338 21.4919201,45.2569203 21.7581141,45.5920427 C21.9546331,45.7932935 22.2922886,45.9271651 22.6924728,45.9945442 C23.0935503,46.0619233 23.7608218,46.1284158 24.7568161,46.1284158 C25.4240875,46.1284158 25.958262,46.0619233 26.2959175,45.9945442 C26.6255335,45.9271651 26.8917275,45.7932935 27.0248245,45.6594218 Z M21.3579299,43.113201 L27.2293829,43.113201 C27.2293829,42.5103353 27.0248245,42.0404547 26.7586305,41.7727115 C26.5621115,41.6388398 26.224456,41.5049682 25.8242718,41.4375891 C25.4240875,41.3710965 24.889913,41.3710965 24.161006,41.3710965 C23.4937346,41.3710965 23.0220889,41.3710965 22.6924728,41.4375891 C22.3539241,41.5049682 22.0877301,41.6388398 21.8921043,41.7727115 C21.5544489,42.0404547 21.3579299,42.4429562 21.3579299,43.113201 Z M29.0268176,44.9892657 L29.0268176,44.6541433 L30.0942733,44.6541433 L30.0942733,44.8553941 C30.0942733,45.1905165 30.1648415,45.4582597 30.2282636,45.5921314 C30.2988318,45.7268896 30.4319288,45.8607612 30.6284478,45.9272538 C30.9661033,46.0611254 31.7664717,46.1285045 33.1635435,46.1285045 C34.0353734,46.1285045 34.5695479,46.0611254 34.8982707,46.0611254 C35.2359261,45.9946329 35.5030134,45.9272538 35.6361104,45.7933821 C35.8326294,45.6595105 35.9666197,45.4582597 35.9666197,45.1231374 C35.9666197,44.7215224 35.8326294,44.4537792 35.5655422,44.319021 C35.3699164,44.1851493 34.8982707,44.1186568 34.3024607,44.1186568 L31.4288163,44.1186568 C30.9661033,44.1186568 30.6284478,44.0512777 30.2988318,43.9838986 C30.0317445,43.917406 29.8271861,43.8500269 29.6324536,43.7161553 C29.2939048,43.448412 29.1599146,42.9785314 29.1599146,42.3756658 C29.1599146,41.705421 29.3653663,41.2373136 29.7655505,40.9021912 C30.0317445,40.767433 30.3613606,40.6335613 30.8955351,40.5670688 C31.3662875,40.4996897 32.0960878,40.4996897 33.0295532,40.4996897 C34.0979022,40.4996897 34.8982707,40.5670688 35.4324452,40.6335613 C35.9031976,40.767433 36.3033819,40.9686837 36.4999009,41.3038061 C36.6338912,41.4376777 36.7044594,41.5724359 36.7660949,41.705421 L36.7660949,42.510424 L35.6995324,42.510424 C35.6995324,42.1079225 35.6361104,41.9066718 35.5655422,41.7728001 C35.4324452,41.6389285 35.1028291,41.5050568 34.7651737,41.4376777 C34.3649895,41.3702986 33.7691794,41.3702986 33.0295532,41.3702986 C31.6333747,41.3702986 30.832113,41.4376777 30.4953508,41.6389285 C30.2988318,41.7728001 30.2282636,42.0405434 30.2282636,42.3756658 C30.2282636,42.7107882 30.3613606,42.9120389 30.565919,43.0459105 C30.832113,43.1797822 31.3662875,43.2471613 32.0960878,43.1797822 C32.8348207,43.1797822 33.7691794,43.1797822 34.9688389,43.2471613 C35.6995324,43.3136538 36.2328137,43.448412 36.4999009,43.7161553 C36.8375564,44.0512777 37.0331821,44.4537792 37.0331821,45.1231374 C37.0331821,45.4582597 36.9715466,45.7933821 36.8375564,46.0611254 C36.7660949,46.2623761 36.5704691,46.4636269 36.3033819,46.5974985 C36.0997167,46.7313702 35.6995324,46.8661284 35.2359261,46.8661284 C34.7651737,46.9326209 34.0353734,47 33.101908,47 C32.0960878,47 31.2957193,46.9326209 30.832113,46.8661284 C30.2988318,46.7987493 29.9611763,46.7313702 29.6940891,46.531006 C29.4270018,46.3962478 29.2939048,46.194997 29.1599146,45.9946329 C29.0982791,45.7268896 29.0268176,45.3917672 29.0268176,44.9892657 Z M38.9731824,42.3759317 L38.9731824,42.4433109 L37.9762949,42.4433109 L37.9762949,42.174681 C37.9762949,41.5053228 38.1728139,41.0354422 38.7060952,40.8350781 C39.1777409,40.5664482 40.1112063,40.4999557 41.5082781,40.4999557 C42.5757338,40.4999557 43.3135735,40.4999557 43.7771798,40.6338273 C44.2479322,40.7003198 44.6490097,40.9015706 44.9152037,41.1702004 C45.1108295,41.3705646 45.2448197,41.6383079 45.3162812,41.9743168 C45.3779167,42.2420601 45.4493782,42.7784332 45.4493782,43.5825496 L45.4493782,46.8655078 L44.443558,46.8655078 L44.443558,46.1287705 C44.177364,46.4638928 43.847748,46.7316361 43.5100925,46.7990152 C43.1804765,46.9328869 42.513205,46.9993794 41.5797396,46.9993794 C40.4408224,46.9993794 39.7110221,46.9328869 39.2402697,46.8655078 C38.8400854,46.8655078 38.5095761,46.7316361 38.2433821,46.5977645 C38.0388237,46.3965137 37.9057267,46.195263 37.8423046,45.9948988 C37.7092076,45.7936481 37.7092076,45.4585257 37.7092076,45.0560242 C37.7092076,44.5870302 37.7717364,44.1854153 37.8423046,43.9167854 C38.0388237,43.6490422 38.2433821,43.4477914 38.5095761,43.3139198 C38.9106536,43.1800481 39.6395606,43.1135556 40.9124681,43.1135556 C42.1755496,43.1135556 43.0473795,43.1800481 43.4475638,43.2474273 C43.847748,43.3139198 44.177364,43.5151705 44.3819225,43.7829138 L44.443558,43.7829138 L44.443558,43.1135556 C44.443558,42.5771825 44.3819225,42.174681 44.177364,41.9069377 C43.980845,41.705687 43.714651,41.5053228 43.3135735,41.4379437 C42.975918,41.3705646 42.3792148,41.3705646 41.5797396,41.3705646 C40.5122838,41.3705646 39.7735509,41.4379437 39.5064636,41.5053228 C39.1777409,41.6383079 38.9731824,41.9743168 38.9731824,42.3759317 Z M43.7771798,44.2527944 C43.4475638,44.0515436 42.646302,43.9841645 41.5797396,43.9841645 C40.7070163,43.9841645 40.1737351,44.0515436 39.8450124,44.0515436 C39.5064636,44.0515436 39.2402697,44.1180362 39.1062794,44.1854153 C38.9106536,44.386666 38.7766634,44.6544093 38.7766634,45.0560242 C38.7766634,45.5259048 38.9106536,45.7936481 39.1777409,45.9275197 C39.4439348,46.0613914 40.3068321,46.1287705 41.7753653,46.1287705 C42.8428211,46.1287705 43.5100925,46.0613914 43.847748,45.9275197 C44.177364,45.726269 44.3819225,45.4585257 44.3819225,45.0560242 C44.3819225,44.6544093 44.177364,44.386666 43.7771798,44.2527944 Z M46.5171019,46.8658624 L46.5171019,37.7528387 L47.5130962,37.7528387 L47.5130962,46.8658624 L46.5171019,46.8658624 Z M55.3241922,45.6594218 C55.3858277,45.4581711 55.519818,45.2569203 55.519818,44.921798 L56.5872737,44.921798 C56.5256382,45.6594218 56.3201865,46.1949084 55.7869052,46.5309173 C55.2527307,46.7986606 54.3898335,46.9999113 53.1178193,46.9999113 C52.0503636,46.9999113 51.2491018,46.9325322 50.6532918,46.8660397 C50.1200106,46.7986606 49.7198264,46.664789 49.4527391,46.3970457 C48.7854676,45.9945442 48.5183804,45.0565562 48.5183804,43.7160666 C48.5183804,42.7780786 48.6514774,42.1078338 48.9185646,41.6388398 C49.1856519,41.1698458 49.5143746,40.9021025 49.9860203,40.7008518 C50.5201948,40.5669801 51.3214566,40.499601 52.4505478,40.499601 C53.5188968,40.499601 54.318372,40.5669801 54.7900177,40.6334727 C55.2527307,40.7673443 55.652915,40.9685951 55.9200022,41.3037174 C56.1870895,41.5723473 56.3201865,41.9074697 56.4541767,42.3090846 C56.5256382,42.644207 56.5872737,43.1805801 56.5872737,43.9838099 L49.5858361,43.9838099 C49.5858361,44.7214338 49.7198264,45.2569203 50.0485491,45.5920427 C50.2531076,45.7932935 50.5201948,45.9271651 50.9203791,45.9945442 C51.3214566,46.0619233 52.0503636,46.1284158 52.9847223,46.1284158 C53.722562,46.1284158 54.185275,46.0619233 54.5238237,45.9945442 C54.8525465,45.9271651 55.1196338,45.7932935 55.3241922,45.6594218 Z M49.5858361,43.113201 L55.4572892,43.113201 C55.4572892,42.5103353 55.3241922,42.0404547 54.9856435,41.7727115 C54.7900177,41.6388398 54.451469,41.5049682 54.1227462,41.4375891 C53.722562,41.3710965 53.1178193,41.3710965 52.388019,41.3710965 C51.7832763,41.3710965 51.2491018,41.3710965 50.9203791,41.4375891 C50.5818304,41.5049682 50.3156364,41.6388398 50.1200106,41.7727115 C49.8529234,42.0404547 49.6483649,42.4429562 49.5858361,43.113201 Z M57.3252921,44.9892657 L57.3252921,44.6541433 L58.3927478,44.6541433 L58.3927478,44.8553941 C58.3927478,45.1905165 58.3927478,45.4582597 58.526738,45.5921314 C58.5892668,45.7268896 58.7223638,45.8607612 58.9269223,45.9272538 C59.1940095,46.0611254 60.0569068,46.1285045 61.3914497,46.1285045 C62.2623864,46.1285045 62.8590897,46.0611254 63.1967452,46.0611254 C63.5263612,45.9946329 63.7934484,45.9272538 63.9265454,45.7933821 C64.1311039,45.6595105 64.1927394,45.4582597 64.1927394,45.1231374 C64.1927394,44.7215224 64.0596424,44.4537792 63.8640166,44.319021 C63.5969294,44.1851493 63.1967452,44.1186568 62.5294737,44.1186568 L59.6558293,44.1186568 C59.1940095,44.1186568 58.8563541,44.0512777 58.5892668,43.9838986 C58.3221796,43.917406 58.1256605,43.8500269 57.9219953,43.7161553 C57.5923793,43.448412 57.3878208,42.9785314 57.3878208,42.3756658 C57.3878208,41.705421 57.6549081,41.2373136 58.0550923,40.9021912 C58.2596508,40.767433 58.659835,40.6335613 59.122548,40.5670688 C59.6558293,40.4996897 60.3954555,40.4996897 61.328921,40.4996897 C62.3963767,40.4996897 63.1967452,40.5670688 63.6603514,40.6335613 C64.1927394,40.767433 64.5312881,40.9686837 64.7983754,41.3038061 C64.8609042,41.4376777 64.9323656,41.5724359 64.9940011,41.705421 C64.9940011,41.9066718 65.0654626,42.1753016 65.0654626,42.510424 L63.9980069,42.510424 C63.9980069,42.1079225 63.9265454,41.9066718 63.7934484,41.7728001 C63.6603514,41.6389285 63.3932642,41.5050568 62.99308,41.4376777 C62.5920025,41.3702986 62.0587212,41.3702986 61.2574595,41.3702986 C59.9229165,41.3702986 59.122548,41.4376777 58.7938253,41.6389285 C58.5892668,41.7728001 58.4561698,42.0405434 58.4561698,42.3756658 C58.4561698,42.7107882 58.5892668,42.9120389 58.8563541,43.0459105 C59.122548,43.1797822 59.5941938,43.2471613 60.3954555,43.1797822 C61.1243625,43.1797822 62.0587212,43.1797822 63.2601672,43.2471613 C63.9980069,43.3136538 64.4598267,43.448412 64.7983754,43.7161553 C65.1270981,44.0512777 65.2610884,44.4537792 65.2610884,45.1231374 C65.2610884,45.4582597 65.1985596,45.7933821 65.1270981,46.0611254 C64.9940011,46.2623761 64.7983754,46.4636269 64.5938169,46.5974985 C64.3267297,46.7313702 63.9980069,46.8661284 63.5263612,46.8661284 C62.99308,46.9326209 62.3258085,47 61.3914497,47 C60.3231008,47 59.5227323,46.9326209 59.0600193,46.8661284 C58.5892668,46.7987493 58.1890826,46.7313702 57.9219953,46.531006 C57.7254763,46.3962478 57.5218111,46.194997 57.458389,45.9946329 C57.3252921,45.7268896 57.3252921,45.3917672 57.3252921,44.9892657 Z" id="Combined-Shape" fill="#F9F9F9"></path>
    </g>
</svg>