<?xml version="1.0" encoding="UTF-8"?>
<svg width="68px" height="68px" viewBox="0 0 68 68" version="1.1" xmlns="http://www.w3.org/2000/svg" xmlns:xlink="http://www.w3.org/1999/xlink">
    <!-- Generator: Sketch 53.2 (72643) - https://sketchapp.com -->
    <title>Icons / APPS / EXTERNAL / PAYEX 1</title>
    <desc>Created with Sketch.</desc>
    <g id="Icons-/-APPS-/-EXTERNAL-/-PAYEX-1" stroke="none" stroke-width="1" fill="none" fill-rule="evenodd">
        <path d="M21.0415357,35.1729333 C21.0415357,37.7020333 19.9157139,39.3605667 18.1177773,39.3605667 C17.0186994,39.3605667 16.4697469,38.6976667 16.4697469,37.6882667 C16.4697469,35.6323667 17.7862945,34.5371 21.0415357,34.1327333 L21.0415357,35.1729333 Z M25.3592579,36.6669667 L25.3592579,36.9222333 C25.3592579,38.7569333 24.8443217,39.4665 24.2256945,39.4665 C23.7635423,39.4665 23.5671862,39.2033 23.5671862,37.9041 L23.5671862,33.2388333 C23.5671862,31.8745333 23.5040801,30.8476333 22.7069261,30.0272333 C21.9900035,29.3032 20.5059551,28.8869333 18.9590352,28.8829667 L18.9458979,28.8829667 L18.9344027,28.8829667 C16.3184331,28.8829667 14.6779098,30.2239333 14.6779098,31.7697667 C14.6779098,32.6431333 15.316243,33.2526 16.2309291,33.2526 L16.2428935,33.2526 L16.255327,33.2526 C17.0792249,33.2526 17.7217808,32.7301667 17.7217808,32.0649333 C17.7217808,31.3278333 17.0039199,30.9748 16.5762531,30.7638667 C16.5079859,30.7298 16.4265814,30.6892 16.3637099,30.6535 C16.5000097,30.2946333 17.2542328,29.6940333 18.6784595,29.6940333 C20.4412069,29.6940333 21.0415357,30.4204 21.0415357,32.2875333 L21.0415357,33.3198 C16.0000876,33.9743 13.6083908,35.3465333 13.6083908,37.5851333 C13.6083908,39.2831 14.9265805,40.3209667 17.2378112,40.3209667 C19.094162,40.3209667 20.4184511,39.561 21.1956646,38.0744333 C21.3880326,39.8925667 22.5276954,40.2971667 23.4090691,40.2971667 C25.6438217,40.2971667 26.1625114,39.0976 26.1625114,37.0942 L26.1625114,36.6669667 L25.3592579,36.6669667 L25.3592579,36.6669667 Z" id="Fill-1" fill="#FFFFFF"></path>
        <path d="M32.5162843,29.3244333 L32.5162843,29.9271333 L32.6429657,29.9327333 C34.0092474,30.0039 34.596908,30.1789 34.596908,30.9267333 C34.596908,31.3698333 34.4181466,31.8460667 34.1936391,32.3013 C34.1929353,32.3024667 32.3581673,36.054 31.8507381,37.0988667 C31.6325647,36.6310333 29.1984062,31.3812667 29.1984062,31.3812667 C29.0187064,30.9815667 28.9138424,30.8219667 28.9138424,30.5737 C28.9138424,30.1042333 29.2591664,29.9595667 30.750018,29.9339 L30.8811567,29.9304 L30.8811567,29.3244333 L23.7063011,29.3244333 L23.7063011,29.9327333 L23.8369705,29.9339 C25.6947289,29.9572333 26.0257425,30.7463667 26.6075383,32.008 C26.6075383,32.008 30.3279815,39.9275667 30.3800616,40.0379333 C29.8829547,41.1098667 29.6464828,41.5611333 29.2087284,42.2492333 C28.4437139,43.4688667 27.7077892,44.0909333 26.7691743,44.0909333 C26.5165154,44.0909333 26.4358147,44.0494 26.4123552,44.0349333 C26.4437909,43.9894333 26.5296527,43.9028667 26.5796215,43.8527 C26.8259463,43.6112 27.1987179,43.2427667 27.1987179,42.6314333 C27.1987179,41.7114 26.50807,41.0718333 25.5201901,41.0718333 C24.4485599,41.0718333 23.6720502,41.8185 23.6720502,42.8507667 C23.6720502,44.1364333 24.7565832,45 26.3710665,45 C27.8079613,45 29.0011118,44.1933667 29.9950911,42.5546667 C30.1182535,42.3479333 30.2381316,42.1272 30.3549599,41.8927 L35.1242777,32.3633667 C35.8895268,30.8677 36.8745915,30.1173 38.3143015,29.9327333 L38.4306607,29.9173333 L38.4306607,29.3244333 L32.5162843,29.3244333" id="Fill-3" fill="#FFFFFF"></path>
        <path d="M5.93736664,26.4808 C5.93736664,24.9144333 5.71168618,24.8220333 7.6949529,24.8220333 C10.8422804,24.8220333 11.8796598,26.3156 11.8796598,29.0544667 C11.8796598,31.6092333 10.7170066,32.6333333 7.44229401,32.6333333 L5.93736664,32.6333333 L5.93736664,26.4808 Z M7.89318574,33.4546667 C12.3704327,33.4546667 14.894441,31.6433 14.894441,28.9268333 C14.894441,26.7531 13.2548561,24.0018667 7.61988248,24.0018667 L0,24.0018667 L0,24.5765667 L0.121520246,24.5789 C2.7313904,24.6017667 3.03378345,25.0362333 3.03378345,27.164 L3.03378345,36.6196 C3.03378345,38.7466667 2.7313904,39.1806667 0.121520246,39.2028333 L0,39.204 L0,39.7810333 L9.17219806,39.7810333 L9.17219806,39.2028333 L9.04739349,39.2028333 C6.24257482,39.2028333 5.93736664,38.7933333 5.93736664,36.6196 L5.93736664,33.4546667 L7.89318574,33.4546667 L7.89318574,33.4546667 Z" id="Fill-4" fill="#FFFFFF"></path>
        <path d="M49.8239841,30.0306691 L49.8239841,24 L36,24 L36,24.5775379 L36.1155176,24.5794307 C38.533853,24.6019076 38.801872,25.0436377 38.801872,27.2021294 L38.801872,36.7973974 C38.801872,38.9558891 38.533853,39.3980924 36.1155176,39.4208059 L36,39.4222255 L36,40 L50,40 L50,33.4147431 L49.4511774,33.4147431 C49.0649012,37.5814861 47.1661666,39.1295527 43.3344531,39.1499002 C41.4713326,39.1596007 41.6268019,38.9672458 41.6268019,36.9405397 L41.6268019,32.139475 C41.6936925,32.1359261 41.9078338,32.1205471 41.9078338,32.1205471 C44.2706934,32.1205471 45.2384385,33.1260924 45.4210749,35.7845176 L45.9443285,35.7845176 L45.9443285,27.9507283 L45.4244994,27.9507283 C45.2806731,30.4910906 44.2373622,31.3191867 41.7468854,31.3191867 L41.6268019,31.3191867 L41.6268019,26.7932865 C41.6268019,25.024 41.6089948,24.8264399 43.1260192,24.8264399 C47.4659187,24.8264399 48.7646925,26.5765619 49.3356598,30.0306691 L49.8239841,30.0306691" id="Fill-6" fill="#FFFFFF"></path>
        <path d="M65.8343783,38.3952493 C64.6371769,38.3952493 64.0616302,37.9729374 63.1454351,37.0242559 C63.1447469,37.0217783 60.0830402,33.9869885 59.130601,33.0274958 L59.2090534,32.9515922 C59.336137,32.8306421 61.1451292,31.0058041 63.7260284,28.5154025 C64.3671815,29.2681313 64.7716012,30.2859593 65.016134,31.6067258 L65.5857165,31.6067258 L65.5857165,26 L59.8742927,26 L59.8742927,26.5597041 C61.2570729,26.8065595 62.3129683,27.2171593 63.0848754,27.8759659 C60.6143141,30.2652379 58.7254932,32.1693579 58.595198,32.2950379 L58.5142224,32.3727433 L58.3596116,32.2087737 C58.1797675,32.0301639 56.4639089,30.3080322 56.4639089,30.3080322 C56.4643676,30.3096088 56.446475,30.2915901 56.446475,30.2915901 C56.2202936,30.0600506 56.0581129,29.8929277 56.0581129,29.716345 C56.0581129,29.4271458 57.0747821,29.5122839 57.4645206,29.5122839 L57.6051384,29.5122839 L57.6051384,28.906407 L51,28.906407 L51,29.5095811 L51.1380945,29.5122839 C52.5045879,29.5359333 52.5568894,29.8895492 53.2365805,30.5796632 C53.2379569,30.5819155 55.9044196,33.216241 56.5019881,33.810631 L56.7040832,34.0074847 C55.7307692,34.9257597 51.8471479,38.5860217 51.4078605,39 L52.706683,39 C53.1133965,38.6189057 56.4005964,35.5413216 57.3440893,34.6469212 C57.9590916,35.2814027 59.7247286,37.056239 59.7247286,37.056239 C60.1454351,37.4814789 60.3881327,37.7718043 60.3881327,38.0049205 C60.3881327,38.329256 59.9135189,38.3952493 58.7910996,38.3952493 L58.4607738,38.3952493 L58.4607738,39 L66,39 L66,38.3952493 L65.8343783,38.3952493" id="Fill-7" fill="#FFFFFF"></path>
    </g>
</svg>