<?xml version="1.0" encoding="UTF-8"?>
<svg width="107px" height="20px" viewBox="0 0 107 20" version="1.1" xmlns="http://www.w3.org/2000/svg" xmlns:xlink="http://www.w3.org/1999/xlink">
    <!-- Generator: Sketch 53.2 (72643) - https://sketchapp.com -->
    <title>Black</title>
    <desc>Created with Sketch.</desc>
    <g id="Page-1" stroke="none" stroke-width="1" fill="none" fill-rule="evenodd" fill-opacity="0.95">
        <g id="Logos-/-Regular-/-Black112x24" transform="translate(-2.000000, -2.000000)" fill="#000000" fill-rule="nonzero">
            <path d="M34.2260721,6.07163121 C32.4993334,6.07163121 30.9687989,7.01985816 30.0183462,8.48297872 L30.0183462,6.92907801 C30.0183462,6.43946387 29.6205039,6.04255319 29.1297405,6.04255319 C28.6389771,6.04255319 28.2411348,6.43946387 28.2411348,6.92907801 L28.2411348,21.1134752 C28.2411348,21.6030893 28.6389771,22 29.1297405,22 C29.6205039,22 30.0183462,21.6030893 30.0183462,21.1134752 L30.0183462,15.4609929 C30.9687989,16.9205674 32.4993334,17.8687943 34.2260721,17.8687943 C37.10942,17.8687943 39.4468085,15.2276596 39.4468085,11.9702128 C39.4468085,8.71276596 37.10942,6.07163121 34.2260721,6.07163121 Z M33.8315312,16.4056738 C31.6846597,16.4056738 29.9437033,14.4198582 29.9437033,11.9702128 C29.9437033,9.52056738 31.6846597,7.53546099 33.8315312,7.53546099 C35.9784026,7.53546099 37.719359,9.5212766 37.719359,11.9702128 C37.719359,14.4191489 35.9784026,16.4056738 33.8315312,16.4056738 Z M51.4660039,6.04255348 C51.7017347,6.04236473 51.9278647,6.13589051 52.0945516,6.30251627 C52.2612384,6.46914203 52.3547985,6.69518923 52.3546096,6.93083356 L52.3546096,16.9179442 C52.3547985,17.1535886 52.2612384,17.3796357 52.0945516,17.5462615 C51.9278647,17.7128873 51.7017347,17.806413 51.4660039,17.8062243 C50.9752405,17.8062243 50.5773982,17.4085278 50.5773982,16.9179442 L50.5773982,15.4739561 C49.6269455,16.9364204 48.0964111,17.8865248 46.3696725,17.8865248 C43.4863246,17.8865248 41.1489362,15.2401608 41.1489362,11.9762644 C41.1489362,8.7123681 43.4863246,6.06600407 46.3696725,6.06600407 C48.0964111,6.06600407 49.6269455,7.01895095 50.5773982,8.4821259 L50.5773982,6.93083356 C50.5773982,6.44025002 50.9752405,6.04255348 51.4660039,6.04255348 Z M46.7642134,16.4261924 C48.9117957,16.4261924 50.6520411,14.4357343 50.6520411,11.9819494 C50.6520411,9.52816453 48.9117957,7.53841714 46.7642134,7.53841714 C44.6166311,7.53841714 42.8770966,9.52745391 42.8770966,11.9819494 C42.8770966,14.436445 44.617342,16.4261924 46.7642134,16.4261924 Z M87.576255,6.12112875 C88.023065,6.32252011 88.2220539,6.84791581 88.0207459,7.2947299 L83.6539423,17.0087111 C83.4974151,17.3288824 83.1721413,17.5319149 82.815729,17.5319149 C82.4593167,17.5319149 82.1340429,17.3288824 81.9775157,17.0087111 L77.6100021,7.2947299 C77.5134196,7.0799836 77.5061434,6.83566163 77.5897753,6.61554936 C77.6734072,6.39543708 77.8410912,6.2175789 78.0559131,6.12112875 C78.2707326,6.0241356 78.5153303,6.01664048 78.7356865,6.10029868 C78.9560427,6.18395689 79.1340282,6.35188569 79.2303347,6.56699779 L82.8167941,14.5443617 L86.4032534,6.56699779 C86.4995682,6.35224622 86.6773119,6.18458861 86.89733,6.10095762 C87.1173482,6.01732662 87.3615909,6.02458317 87.576255,6.12112875 Z M64.100319,6.13032479 C64.3150574,6.22667223 64.4826762,6.40434101 64.5662756,6.62421888 C64.6498749,6.84409674 64.6426016,7.08815853 64.5460567,7.30267614 L58.236882,21.3354309 C58.1399378,21.550395 57.9613506,21.7179605 57.7405532,21.8011281 C57.5197559,21.8842958 57.2749097,21.8762249 57.0600779,21.7786974 C56.8453896,21.6824943 56.6777814,21.5049566 56.594175,21.2851934 C56.5105687,21.0654303 56.5178231,20.8214706 56.6143402,20.6070553 L58.3696096,16.7063098 L54.1393608,7.30267614 C54.0046786,7.01304938 54.0363052,6.67342279 54.2221532,6.41359837 C54.4080012,6.15377394 54.7193428,6.01391461 55.0371862,6.04747325 C55.3550297,6.08103189 55.6302436,6.28282111 55.7576439,6.57571901 L59.3427087,14.5445875 L62.9270638,6.57571901 C63.1281487,6.12918867 63.6532385,5.92985271 64.100319,6.13032479 Z M108.238591,6.07383079 C108.67251,6.08496597 109.019125,6.44069149 109.021277,6.87708797 C109.021277,7.29435519 108.662104,7.64053771 108.237884,7.64977872 C108.07668,7.6554655 107.916891,7.64977872 107.751445,7.64977872 C105.636709,7.64977872 103.909427,9.46386042 103.909427,11.9184153 L103.909427,17.0535745 C103.909427,17.2558001 103.829476,17.4497327 103.687182,17.5926611 C103.544887,17.7355896 103.351921,17.8157911 103.15078,17.8156025 L102.899784,17.8156025 C102.481185,17.8156025 102.141844,17.4744309 102.141844,17.0535745 L102.141844,6.80458157 C102.141844,6.3837251 102.481185,6.04255352 102.899784,6.04255352 L103.15078,6.04255352 C103.351921,6.04236488 103.544887,6.12256646 103.687182,6.26549489 C103.829476,6.40842332 103.909427,6.60235594 103.909427,6.80458157 L103.909427,8.80703773 C104.770593,7.16995696 106.283644,6.07383079 108.107083,6.07383079 L108.238591,6.07383079 Z M71.0441769,5.97163121 C74.1591632,5.97163121 76.6840985,8.60682611 76.6798382,11.863489 C76.6798382,11.8819766 76.6798382,11.9082859 76.6798382,11.9175297 C76.6798382,11.9267735 76.6798382,11.9353062 76.6798382,11.943839 C76.6811887,11.9675217 76.6811887,11.9912624 76.6798382,12.0149451 C76.6410409,12.3785288 76.3349216,12.654429 75.9697889,12.6549007 L67.3973637,12.6549007 C67.7424477,14.6366299 69.3499993,16.1298596 71.2827535,16.1298596 C72.3726791,16.1298596 73.7480446,15.7622406 74.4637743,14.9921608 C74.6924204,14.7416332 75.0755056,14.7105951 75.3413953,14.9210546 L75.3981992,14.9665625 C75.5617263,15.0982851 75.6629099,15.292398 75.677335,15.5020635 C75.6917602,15.7117289 75.6181168,15.9179044 75.4741745,16.0708415 C74.4524135,17.1701429 72.629717,17.7446809 71.0441769,17.7446809 C67.9291906,17.7446809 65.4042553,15.1087749 65.4042553,11.8578005 C65.4042553,8.60682611 67.9291906,5.97163121 71.0441769,5.97163121 Z M67.3710919,11.2221113 L75.0829373,11.2221113 C74.7989176,9.16500959 73.2673413,7.58716354 71.2827535,7.58716354 C69.2981657,7.58716354 67.6551116,9.16500959 67.3710919,11.2221113 Z M94.3780142,5.97163121 C97.4932788,5.97163121 100.01844,8.60682611 100.014179,11.8613558 C100.014179,11.8798434 100.014179,11.89762 100.014179,11.9153965 L100.014179,12.0149451 C99.9753782,12.3785288 99.6692316,12.654429 99.3040663,12.6549007 L90.7308751,12.6549007 C91.0759899,14.6366299 92.6836852,16.1298596 94.6166121,16.1298596 C95.7066351,16.1298596 97.0821235,15.7622406 97.7979171,14.9921608 C98.0265836,14.7416332 98.4097031,14.7105951 98.6756165,14.9210546 L98.7324255,14.9665625 C98.8959673,15.0982851 98.9971598,15.292398 99.0115863,15.5020635 C99.0260127,15.7117289 98.9523628,15.9179044 98.8084076,16.0708415 C97.7865553,17.1701429 95.9636959,17.7446809 94.3780142,17.7446809 C91.2627496,17.7446809 88.7375887,15.1087749 88.7375887,11.8578005 C88.7375887,8.60682611 91.2627496,5.97163121 94.3780142,5.97163121 Z M90.704601,11.2221113 L98.4171355,11.2221113 C98.1330904,9.16500959 96.6013772,7.58716354 94.6166121,7.58716354 C92.6318469,7.58716354 90.988646,9.16500959 90.704601,11.2221113 Z" id="Payever"></path>
            <path d="M12.0538378,2.0004186 C17.5231335,2.04845269 21.9310221,6.49761005 21.9290774,11.9681149 C21.9271327,17.4386197 17.5160819,21.8846408 12.0467535,21.9287849 L12.0389607,21.9287849 C8.45979042,21.9561812 5.14099495,20.0611428 3.34499691,16.9645154 C1.54899888,13.8678879 1.5518523,10.0456388 3.35247179,6.95169729 C5.15309127,3.8577558 8.47471245,1.96767645 12.0538378,2.0004186 Z M12.0538378,20.852476 C15.2147959,20.849818 18.1342239,19.160703 19.7124014,16.4214041 C21.290579,13.6821053 21.2877434,10.3087874 19.7049629,7.57214656 C18.1221823,4.83550576 15.1999188,3.15130294 12.0389607,3.15396101 C7.15254287,3.15806997 3.19464895,7.12334847 3.19875715,12.0106584 C3.20286536,16.8979684 7.16742001,20.856585 12.0538378,20.852476 Z M12.106383,18.3120567 C8.679084,18.3120567 5.90070922,15.533682 5.90070922,12.106383 C5.90070922,8.679084 8.679084,5.90070922 12.106383,5.90070922 C15.533682,5.90070922 18.3120567,8.679084 18.3120567,12.106383 C18.3120567,15.533682 15.533682,18.3120567 12.106383,18.3120567 Z" id="Glyph"></path>
        </g>
    </g>
</svg>