<?xml version="1.0" encoding="UTF-8"?>
<svg width="22px" height="22px" viewBox="0 0 22 22" version="1.1" xmlns="http://www.w3.org/2000/svg" xmlns:xlink="http://www.w3.org/1999/xlink">
    <!-- Generator: Sketch 53.2 (72643) - https://sketchapp.com -->
    <title>icon 28x28 copy 3</title>
    <desc>Created with Sketch.</desc>
    <g id="Mobile" stroke="none" stroke-width="1" fill="none" fill-rule="evenodd" fill-opacity="0.95">
        <g id="B1-Overview-4" transform="translate(-14.000000, -30.000000)" fill="#FFFFFF">
            <g id="icon-28x28" transform="translate(11.000000, 27.000000)">
                <g id="Icons-/-CONNECT-/-SECTIONS-/-payever-16x16" transform="translate(3.000000, 3.000000)">
                    <g id="Logos-/-Glyph-/-Black-16x16">
                        <path d="M10.9914257,22 C4.91634858,21.9952657 -0.00473085676,17.066563 3.41304938e-06,10.9914645 C0.00473768286,4.91628832 4.933423,-0.0047308734 11.0085777,3.41311524e-06 C17.0803176,0.00466008837 22,4.92816284 22,11.0000017 C22,17.0751002 17.0751176,22 10.9999629,22 L10.9914257,22 M10.9915888,1.37500379 C5.67587241,1.37966817 1.3703394,5.69269478 1.37500379,11.0084112 C1.37966817,16.3242041 5.69269478,20.6296606 11.0084877,20.6249962 C16.3242041,20.6203318 20.6296606,16.3073052 20.6249962,10.9915888 C20.6204083,5.67587241 16.3073817,1.3703394 10.9915888,1.37500379 L10.9915888,1.37500379 M11.0000364,17.4166667 C7.45617741,17.4166667 4.58333333,14.5438226 4.58333333,10.9999636 C4.58333333,7.45617741 7.45617741,4.58333333 11.0000364,4.58333333 C14.5438954,4.58333333 17.4166667,7.45617741 17.4166667,10.9999636 C17.4166667,14.5438226 14.5438954,17.4166667 11.0000364,17.4166667" id="Logo-Glyph"></path>
                    </g>
                </g>
            </g>
        </g>
    </g>
</svg>