<?xml version="1.0" encoding="UTF-8"?>
<svg width="16px" height="16px" viewBox="0 0 16 16" version="1.1" xmlns="http://www.w3.org/2000/svg" xmlns:xlink="http://www.w3.org/1999/xlink">
    <!-- Generator: Sketch 53.2 (72643) - https://sketchapp.com -->
    <title>2</title>
    <desc>Created with Sketch.</desc>
    <g id="Page-1" stroke="none" stroke-width="1" fill="none" fill-rule="evenodd">
        <g id="2-details-5" transform="translate(-1214.000000, -862.000000)" fill="#FFFFFF" fill-rule="nonzero">
            <g id="Icons-/-CONNECT-/-SECTIONS-/-Cards-16x16" transform="translate(1212.000000, 862.000000)">
                <path d="M16.7000892,7.50121196 L9.66742559,0.41870904 C9.39034128,0.13968938 9.02731448,0 8.66428768,0 C8.30126088,0 7.93787747,0.13968938 7.66114977,0.41870904 L3.80978489,4.2962564 C3.25561627,4.85429572 3.25561627,5.77646108 3.80978489,6.3345004 L4.44811296,6.99488284 L5.92054681,6.99488284 L4.54618012,5.59296167 C4.449896,5.49564593 4.43563168,5.37391148 4.43563168,5.3150193 C4.43563168,5.25612712 4.449896,5.13870186 4.54618012,5.04174522 L5.05470293,4.54547087 L7.47143439,6.99488284 L9.78974208,6.99488284 L6.21367847,3.37588652 L8.39718839,1.16850705 C8.49347252,1.07155041 8.60580399,1.05323638 8.66428768,1.05323638 C8.72277137,1.05323638 8.83510284,1.06544573 8.93138697,1.16204327 L15.9644072,8.24346889 C16.0610479,8.34078463 16.0756688,8.45282341 16.0756688,8.51207469 C16.0756688,8.57096687 16.0507063,8.68372385 15.9540655,8.78103959 L15.555378,9.17281623 L15.555378,10.6555346 L16.6908174,9.52257833 C17.2446294,8.96346171 17.2546144,8.05925128 16.7000892,7.50121196 Z M13.4003967,7.65885627 C14.1838641,7.65885627 14.8015089,8.2944609 14.8015089,9.08340066 L14.8015089,12.8718916 L2,12.8718916 L2,9.08340066 C2,8.2944609 2.67006617,7.65885627 3.45353364,7.65885627 L13.4003967,7.65885627 Z M5.47621342,11.5820092 C6.04642938,11.5820092 6.50859317,11.1169764 6.50859317,10.5420594 C6.50859317,9.96786067 6.04642938,9.5024688 5.47621342,9.5024688 C5.19841589,9.5024688 4.94700735,9.61343029 4.76157126,9.79297962 C4.57649179,9.61343029 4.32472664,9.5024688 4.04728572,9.5024688 C3.47706975,9.5024688 3.01490597,9.96786067 3.01490597,10.5420594 C3.01490597,11.1169764 3.47742636,11.5820092 4.04728572,11.5820092 C4.32437003,11.5820092 4.57613518,11.4706886 4.76157126,11.2911392 C4.94700735,11.4706886 5.19841589,11.5820092 5.47621342,11.5820092 Z M2,14.5671963 C2,15.3561361 2.66970956,16 3.45353364,16 L13.4003967,16 C14.1838641,16 14.8018656,15.3561361 14.8018656,14.5671963 L14.8018656,14.4831673 L2,14.4831673 L2,14.5671963 Z" id="Combined-Shape"></path>
            </g>
        </g>
    </g>
</svg>