<?xml version="1.0" encoding="UTF-8"?>
<svg width="68px" height="68px" viewBox="0 0 68 68" version="1.1" xmlns="http://www.w3.org/2000/svg" xmlns:xlink="http://www.w3.org/1999/xlink">
    <!-- Generator: Sketch 53.2 (72643) - https://sketchapp.com -->
    <title>Icons / APPS / EXTERNAL / PAYMILL 1</title>
    <desc>Created with Sketch.</desc>
    <g id="Icons-/-APPS-/-EXTERNAL-/-PAYMILL-1" stroke="none" stroke-width="1" fill="none" fill-rule="evenodd">
        <path d="M40.7115675,19.5625728 C40.7115675,19.8568768 40.6469977,20.1344166 40.5356382,20.3886729 L40.5384455,20.3886729 C40.5384455,20.3886729 20.1460879,62.9840543 19.5541981,64.2204105 C18.9623083,65.4567667 17.4491292,67 15.6346244,67 L5.07231609,66.9981373 C3.92783988,66.9981373 3,66.0756433 3,64.937078 C3,64.6437053 3.063634,64.3633715 3.17639719,64.1105122 L24.4891084,19.5621071 C25.1567975,18.3071241 26.5427086,17.4991851 28.0755394,17.4991851 L38.6383156,17.5005821 C39.7827918,17.5005821 40.7115675,18.4235418 40.7115675,19.5625728 Z M66,25.7499418 C66,26.0391234 65.941045,26.3143349 65.8324929,26.5630032 L65.8324929,26.5653315 L55.9879387,47.7193627 L55.9823239,47.7240194 C55.2154406,49.2686498 53.8824019,50.5008149 52.068365,50.5008149 L41.5051209,50.4989522 C40.3601768,50.4989522 39.4332727,49.5764582 39.4332727,48.4378929 C39.4332727,48.1426576 39.4973746,47.8651177 39.6101378,47.6103957 L49.5398492,26.7418208 L49.5384455,26.724591 C49.695659,26.4340123 49.7948531,26.1052487 49.7948531,25.7504075 C49.7948531,25.3960319 49.5398492,24.7580628 49.5398492,24.7580628 L39.6077983,3.89181619 L39.6101378,3.8899535 C39.4973746,3.63662854 39.4332727,3.35722601 39.4332727,3.06245634 C39.4332727,1.92389103 40.3606447,1.00093134 41.5051209,1.00093134 L52.068365,1 C53.8824019,1 55.2931115,2.23263083 55.9823239,3.77539847 L55.9879387,3.78005517 L65.8324929,24.9345521 L65.8324929,24.9368804 C65.941045,25.1855487 66,25.4607602 66,25.7499418 Z" id="paymill-logo" fill="#FFFFFF"></path>
    </g>
</svg>