<?xml version="1.0" encoding="UTF-8"?>
<svg width="57px" height="66px" viewBox="0 0 57 66" version="1.1" xmlns="http://www.w3.org/2000/svg" xmlns:xlink="http://www.w3.org/1999/xlink">
    <!-- Generator: Sketch 53.2 (72643) - https://sketchapp.com -->
    <title>Icons / APPS / EXTERNAL / PAYPAL 1</title>
    <desc>Created with Sketch.</desc>
    <g id="Page-1" stroke="none" stroke-width="1" fill="none" fill-rule="evenodd">
        <g id="business-page-preview" transform="translate(-1267.000000, -3689.000000)" fill="#FFFFFF" fill-rule="nonzero">
            <g id="Icons-/-APPS-/-EXTERNAL-/-PAYPAL-1" transform="translate(1261.000000, 3688.000000)">
                <path d="M62.6959728,24.7924107 C63.1463835,26.8549107 63.0963378,29.359375 62.545836,32.3058036 C60.3688513,43.2075893 53.2999069,48.6584821 41.3390027,48.6584821 L39.6874971,48.6584821 C39.0619268,48.6584821 38.5114249,48.8610491 38.0359915,49.266183 C37.560558,49.671317 37.2602843,50.1930804 37.1351702,50.8314732 L36.9850333,51.53125 L34.9206513,64.2745536 L34.8455829,64.8270089 C34.7204688,65.4654018 34.4139394,65.9871652 33.9259946,66.3922991 C33.4380497,66.797433 32.8812922,67 32.2557219,67 L22.8346331,67 C22.309154,67 21.8962776,66.8158482 21.5960039,66.4475446 C21.2957301,66.0792411 21.1831275,65.6372768 21.2581959,65.1216518 C21.4834012,63.7466518 21.8149535,61.6841518 22.2528527,58.9341518 C22.6907519,56.1841518 23.0223042,54.1216518 23.2475095,52.7466518 C23.4727148,51.3716518 23.8105228,49.3152902 24.2609334,46.577567 C24.711344,43.8398438 25.049152,41.7834821 25.2743573,40.4084821 C25.3994713,39.5 25.9374618,39.0457589 26.8883286,39.0457589 L31.8053112,39.0457589 C35.1333452,39.0948661 38.0860371,38.8370536 40.6633867,38.2723214 C45.0423789,37.3147321 48.6331524,35.546875 51.4357074,32.96875 C53.9880342,30.6361607 55.9273021,27.6160714 57.2535112,23.9084821 C57.8540587,22.1897321 58.2919579,20.5569196 58.5672088,19.0100446 C58.5922316,18.8627232 58.6235102,18.7706473 58.6610444,18.733817 C58.6985786,18.6969866 58.7423685,18.6847098 58.7924141,18.6969866 C58.8424598,18.7092634 58.9175282,18.7522321 59.0176194,18.8258929 C60.9944216,20.2745536 62.2205394,22.2633929 62.6959728,24.7924107 Z M56.2400873,14.40625 C56.2400873,17.0334821 55.6645626,19.9308036 54.5135133,23.0982143 C52.5116883,28.8191964 48.7332437,32.6863839 43.1781794,34.6997768 C40.3506016,35.6819196 37.1977273,36.1975446 33.7195564,36.2466518 C33.7195564,36.2712054 32.5935298,36.2834821 30.3414767,36.2834821 L26.9633971,36.2466518 C24.4611159,36.2466518 22.98477,37.4252232 22.5343593,39.7823661 C22.4843137,39.9787946 21.4208442,46.4854911 19.3439508,59.3024554 C19.318928,59.5479911 19.1687911,59.6707589 18.8935402,59.6707589 L7.82094579,59.6707589 C7.27044392,59.6707589 6.8137776,59.468192 6.45094682,59.063058 C6.08811605,58.6579241 5.94423488,58.1852679 6.01930331,57.6450893 L14.7272419,3.46763393 C14.852356,2.75558036 15.1964197,2.16629464 15.7594329,1.69977679 C16.3224462,1.23325893 16.9667836,1 17.6924452,1 L40.1379077,1 C40.9886833,1 42.2085454,1.15959821 43.797494,1.47879464 C45.3864425,1.79799107 46.7814643,2.19084821 47.9825593,2.65736607 C50.6600002,3.6640625 52.7056151,5.17410714 54.119404,7.1875 C55.5331929,9.20089286 56.2400873,11.6071429 56.2400873,14.40625 Z" id="Shape"></path>
            </g>
        </g>
    </g>
</svg>