<?xml version="1.0" encoding="UTF-8"?>
<svg width="16px" height="16px" viewBox="0 0 16 16" version="1.1" xmlns="http://www.w3.org/2000/svg" xmlns:xlink="http://www.w3.org/1999/xlink">
    <!-- Generator: Sketch 56 (81588) - https://sketch.com -->
    <title>Combined Shape</title>
    <desc>Created with Sketch.</desc>
    <g id="Desktop" stroke="none" stroke-width="1" fill="none" fill-rule="evenodd">
        <g id="B2-Overview-5" transform="translate(-1073.000000, -3176.000000)" fill="#FFFFFF">
            <path d="M1081,3192 C1076.58172,3192 1073,3188.41828 1073,3184 C1073,3179.58172 1076.58172,3176 1081,3176 C1085.41828,3176 1089,3179.58172 1089,3184 C1089,3188.41828 1085.41828,3192 1081,3192 Z M1084.16945,3184.28662 C1084.21739,3184.25815 1084.25742,3184.21812 1084.28589,3184.17018 C1084.37987,3184.01188 1084.32774,3183.80737 1084.16945,3183.71338 L1079.59047,3180.99461 C1079.53897,3180.96404 1079.48018,3180.9479 1079.42029,3180.9479 C1079.23619,3180.9479 1079.08696,3181.09714 1079.08696,3181.28123 L1079.08696,3186.71877 C1079.08696,3186.77866 1079.10309,3186.83745 1079.13367,3186.88895 C1079.22766,3187.04724 1079.43217,3187.09937 1079.59047,3187.00539 L1084.16945,3184.28662 Z" id="Combined-Shape"></path>
        </g>
    </g>
</svg>