<?xml version="1.0" encoding="UTF-8"?>
<svg width="68px" height="68px" viewBox="0 0 68 68" version="1.1" xmlns="http://www.w3.org/2000/svg" xmlns:xlink="http://www.w3.org/1999/xlink">
    <!-- Generator: Sketch 53.2 (72643) - https://sketchapp.com -->
    <title>Icons / APPS / EXTERNAL / plentymarkets 1</title>
    <desc>Created with Sketch.</desc>
    <g id="Icons-/-APPS-/-EXTERNAL-/-plentymarkets-1" stroke="none" stroke-width="1" fill="none" fill-rule="evenodd">
        <path d="M61.1457143,7.75085944 C65.5244765,11.9406695 65.8941559,22.5144878 65.8941559,22.5144878 C66.8655452,31.3556625 61.3358224,64 41.6076292,64 C34.5967226,64 27.928145,61.8629294 22.4273419,58.9627974 L26.2135856,39.8189337 C29.8005299,41.9349215 48.4078029,44.5795663 57.0014487,27.6530239 C61.1804629,19.4218902 61.7817244,12.6994236 61.1457143,7.75085944 Z M18.5536663,5.21691075 L10.4590541,49.6873396 C2.66372766,40.6754622 1.95889312,30.6599981 2.00171227,28.4086723 C2.05843082,25.4214887 2.98318988,11.6512457 18.5536663,5.21691075 Z M28.3060071,28.9374879 C30.3236632,3.47195757 40.1877598,4.00084117 41.6075172,4.00084117 C43.0274987,4.00084117 47.3616482,5.13432511 47.1374642,12.3886223 C46.7617318,24.5488647 38.1701037,31.2044557 33.9852607,31.2044557 C29.8006419,31.2044557 28.3060071,28.9374879 28.3060071,28.9374879 Z" id="Combined-Shape" fill="#F9F9F9"></path>
    </g>
</svg>