<?xml version="1.0" encoding="UTF-8"?>
<svg width="32px" height="33px" viewBox="0 0 32 33" version="1.1" xmlns="http://www.w3.org/2000/svg" xmlns:xlink="http://www.w3.org/1999/xlink">
    <!-- Generator: Sketch 55.1 (78136) - https://sketchapp.com -->
    <title>Icons / APPS Main / PRODUCTS 1</title>
    <desc>Created with Sketch.</desc>
    <g id="Page-1" stroke="none" stroke-width="1" fill="none" fill-rule="evenodd">
        <g id="Icons-/-APPS-Main-/-PRODUCTS-1" transform="translate(0.000000, 0.500000)" fill="#FFFFFF" fill-rule="nonzero">
            <path d="M31.056,15.328 L16.656,0.928 C16.08,0.352 15.28,0 14.4,0 L3.2,0 C1.44,0 0,1.44 0,3.2 L0,14.4 C0,15.28 0.352,16.08 0.944,16.672 L15.344,31.072 C15.92,31.648 16.72,32 17.6,32 C18.48,32 19.28,31.648 19.856,31.056 L31.056,19.856 C31.648,19.28 32,18.48 32,17.6 C32,16.72 31.632,15.904 31.056,15.328 Z M5.6,8 C4.272,8 3.2,6.928 3.2,5.6 C3.2,4.272 4.272,3.2 5.6,3.2 C6.928,3.2 8,4.272 8,5.6 C8,6.928 6.928,8 5.6,8 Z" id="Shape"></path>
        </g>
    </g>
</svg>