<?xml version="1.0" encoding="UTF-8"?>
<svg width="16px" height="16px" viewBox="0 0 16 16" version="1.1" xmlns="http://www.w3.org/2000/svg" xmlns:xlink="http://www.w3.org/1999/xlink">
    <!-- Generator: Sketch 53.2 (72643) - https://sketchapp.com -->
    <title>3</title>
    <desc>Created with Sketch.</desc>
    <g id="Page-1" stroke="none" stroke-width="1" fill="none" fill-rule="evenodd">
        <g id="Icons-/-APPS-/-EXTERNAL-/-SANTANDER-1" fill="#FFFFFF">
            <path d="M11.3653535,7.26040434 C11.3423278,6.72617107 11.1933801,6.19626942 10.917791,5.71762529 L8.48641842,1.49212888 C8.30077352,1.17014505 8.17269293,0.82505923 8.10217665,0.470588235 L8,0.647462764 C7.39845296,1.69282733 7.39845296,2.98148461 8,4.02757111 L9.94567368,7.40767946 C10.5472207,8.45304402 10.5472207,9.74170131 9.94567368,10.7877878 L9.84349703,10.9639404 C9.77298075,10.6101913 9.64418061,10.2651055 9.45925526,9.94239975 L7.67835942,6.8481784 L6.54146429,4.87223723 C6.35581939,4.55025339 6.2277388,4.20516758 6.15650297,3.85069658 L6.05504587,4.02757111 C5.45565749,5.06932599 5.45349883,6.35292972 6.04928944,7.39685041 L6.04928944,7.39685041 L8,10.7877878 C8.60226659,11.8331524 8.60226659,13.1218097 8,14.1678962 L7.8985429,14.3440487 C7.82730707,13.9902997 7.69922648,13.6452139 7.51430113,13.3225081 L5.08292858,9.09773363 C4.75697068,8.5310132 4.60730347,7.89282103 4.63464652,7.26112628 C2.03202015,7.94335661 0.235294118,9.39228387 0.235294118,11.0693432 C0.235294118,13.4026431 3.71217845,15.2941176 8,15.2941176 C12.2885411,15.2941176 15.7647059,13.4026431 15.7647059,11.0693432 C15.7647059,9.39156193 13.9686994,7.94263467 11.3653535,7.26040434 L11.3653535,7.26040434 Z" id="Path"></path>
        </g>
    </g>
</svg>