<?xml version="1.0" encoding="UTF-8"?>
<svg width="22px" height="22px" viewBox="0 0 22 22" version="1.1" xmlns="http://www.w3.org/2000/svg" xmlns:xlink="http://www.w3.org/1999/xlink">
    <!-- Generator: Sketch 53.2 (72643) - https://sketchapp.com -->
    <title>icon 28x28 copy 2</title>
    <desc>Created with Sketch.</desc>
    <g id="Mobile" stroke="none" stroke-width="1" fill="none" fill-rule="evenodd">
        <g id="C1-Notifications-2" transform="translate(-262.000000, -30.000000)" fill="#FFFFFF" fill-rule="nonzero">
            <g id="icon-28x28" transform="translate(259.000000, 27.000000)">
                <g id="Icons-/-FUNCTIONS-/-16PX-/-Search" transform="translate(3.000000, 3.000000)">
                    <path d="M14.4176578,12.6891746 L21.234612,19.5061287 C21.7119195,19.9834362 21.7119195,20.7573045 21.234612,21.234612 C20.7573045,21.7119195 19.9834362,21.7119195 19.5061287,21.234612 L12.6891746,14.4176578 C11.4136175,15.3431513 9.84461473,15.8888889 8.14814815,15.8888889 C3.87305508,15.8888889 0.407407407,12.4232412 0.407407407,8.14814815 C0.407407407,3.87305508 3.87305508,0.407407407 8.14814815,0.407407407 C12.4232412,0.407407407 15.8888889,3.87305508 15.8888889,8.14814815 C15.8888889,9.84461473 15.3431513,11.4136175 14.4176578,12.6891746 Z M11.9245862,11.8615404 C12.8645634,10.9057048 13.4444444,9.59464573 13.4444444,8.14814815 C13.4444444,5.22308447 11.0732118,2.85185185 8.14814815,2.85185185 C5.22308447,2.85185185 2.85185185,5.22308447 2.85185185,8.14814815 C2.85185185,11.0732118 5.22308447,13.4444444 8.14814815,13.4444444 C9.59464573,13.4444444 10.9057048,12.8645634 11.8615404,11.9245862 C11.8716267,11.9137498 11.8819462,11.903052 11.8924991,11.8924991 C11.903052,11.8819462 11.9137498,11.8716267 11.9245862,11.8615404 Z" id="Combined-Shape"></path>
                </g>
            </g>
        </g>
    </g>
</svg>