<?xml version="1.0" encoding="UTF-8"?>
<svg width="68px" height="68px" viewBox="0 0 68 68" version="1.1" xmlns="http://www.w3.org/2000/svg" xmlns:xlink="http://www.w3.org/1999/xlink">
    <!-- Generator: Sketch 53.2 (72643) - https://sketchapp.com -->
    <title>Icons / APPS / EXTERNAL / SHOPIFY 1</title>
    <desc>Created with Sketch.</desc>
    <g id="Icons-/-APPS-/-EXTERNAL-/-SHOPIFY-1" stroke="none" stroke-width="1" fill="none" fill-rule="evenodd">
        <path d="M31.7204294,3.28279947 C32.0876782,3.28279947 32.4573148,3.40752433 32.8111918,3.65123957 C30.085241,4.93480653 27.1630102,8.16809546 25.9289778,14.6241601 C24.1252083,15.1832715 22.362032,15.7290025 20.7325744,16.2345922 C22.1781688,11.3101106 25.6104408,3.28279947 31.7204294,3.28279947 M34.2477124,5.67646548 C34.7711256,6.98822695 35.1111531,8.87056881 35.1111531,11.4109418 C35.1111531,11.5404454 35.1097204,11.6594358 35.1087652,11.7798598 C33.0389911,12.4211654 30.7896519,13.1179043 28.5350594,13.8165547 C29.8001336,8.92839145 32.1731626,6.56769868 34.2477124,5.67646548 M40.5229391,10.1030034 C39.5778346,10.3959395 38.5042646,10.7285392 37.3404345,11.0888554 C37.3413896,10.864733 37.3418672,10.6434778 37.3418672,10.4021519 C37.3418672,8.29759905 37.0500739,6.60306128 36.5820585,5.25928232 C38.4631938,5.49582947 39.7163289,7.63765639 40.5229391,10.1030034 M55.7998207,13.8504837 C55.8451896,14.1821275 63.0000941,62.5877983 63.0000941,62.5877983 L42.6170691,67 L5.0000941,59.9475498 C5.0000941,59.9475498 9.82733846,22.5893478 10.0102465,21.2723297 C10.2523728,19.5328719 10.310636,19.4745714 12.1554762,18.8953892 C12.4553881,18.8012483 14.8040612,18.0729698 18.1093004,17.0479321 C19.3834484,11.6403209 23.4475412,1 31.9539595,1 C33.0647797,1 34.351822,1.59686342 35.390052,2.97122625 C35.493684,2.9650139 35.5977935,2.96119092 35.6985601,2.96119092 C39.3505128,2.96119092 41.4255402,6.07310009 42.601787,9.45978626 C43.8033448,9.08800104 44.5287687,8.86387859 44.5727048,8.85097602 C44.8654532,8.764481 45.6204862,8.64692424 46.0073152,9.03400139 C46.3936667,9.42107854 49.9147661,12.9186313 49.9147661,12.9186313 C49.9147661,12.9186313 54.9841368,13.2947173 55.2238753,13.314788 C55.4636138,13.3348587 55.7539743,13.5183619 55.7998207,13.8504837 Z M32.7431528,31.8762378 L35.1925745,24.3673072 C35.1925745,24.3673072 33.5366668,23.3777247 30.1857573,23.3777247 C21.4887511,23.3777247 17.18004,29.3651064 17.18004,35.5520354 C17.18004,42.9026712 24.2960686,43.1022186 24.2960686,47.5762058 C24.2960686,48.6578871 23.553749,50.1377038 21.7302958,50.1377038 C18.9388021,50.1377038 15.6311752,47.2106887 15.6311752,47.2106887 L13.945947,52.9481563 C13.945947,52.9481563 17.1642163,56.9851539 23.456945,56.9851539 C28.7011183,56.9851539 32.5905003,52.915538 32.5905003,46.5952576 C32.5905003,38.5620354 23.9162988,37.2481884 23.9162988,33.818947 C23.9162988,33.1905645 24.1103723,30.6957422 27.967176,30.6957422 C30.5971745,30.6957422 32.7431528,31.8762378 32.7431528,31.8762378 Z" id="Combined-Shape" fill="#F9F9F9"></path>
    </g>
</svg>