<?xml version="1.0" encoding="UTF-8"?>
<svg width="68px" height="68px" viewBox="0 0 68 68" version="1.1" xmlns="http://www.w3.org/2000/svg" xmlns:xlink="http://www.w3.org/1999/xlink">
    <!-- Generator: Sketch 53.2 (72643) - https://sketchapp.com -->
    <title>Icons / APPS / EXTERNAL / SHOPWARE 1</title>
    <desc>Created with Sketch.</desc>
    <g id="Icons-/-APPS-/-EXTERNAL-/-SHOPWARE-1" stroke="none" stroke-width="1" fill="none" fill-rule="evenodd">
        <path d="M53.7069279,59.7738974 C53.826003,59.8633887 53.8966907,60.0058184 53.8962699,60.1545503 C53.8954284,60.3037024 53.8238992,60.4452918 53.7039826,60.5339428 C47.9799629,64.7639794 41.1842674,67 34.0515431,67 C25.2218935,67 16.9219809,63.5678219 10.6800056,57.3362065 C4.43760957,51.1037508 1,42.8163577 1,34 C1,25.185743 4.43760957,16.8987701 10.6795849,10.6658943 C16.9224016,4.43259829 25.2227351,1 34.0515431,1 C42.2201786,1 50.0610421,4.00068751 56.1296642,9.44914952 C56.2857662,9.58947851 56.3312083,9.81131595 56.2424279,10.0016424 C56.1565929,10.1865069 55.9567318,10.2995264 55.7488764,10.2717967 C53.3938824,9.94870391 50.852071,9.78526686 48.192026,9.78526686 C38.5662984,9.78526686 30.7506805,11.9288552 25.5900586,15.984531 C20.9877852,19.6015736 18.5553714,24.6059406 18.5553714,30.4569031 C18.5553714,36.9801003 21.0555276,42.1378208 26.1988984,46.2250076 C30.7384785,49.8323869 36.7848004,52.1734442 42.1191962,54.2393054 C46.6019737,55.9749312 50.8352406,57.6139234 53.7069279,59.7738974 Z M66.8615699,31.10687 C66.9532956,32.1572367 67,33.1832349 67,34.1558744 C67,38.2985206 66.2388451,42.3453733 64.7384148,46.1850937 C64.6883443,46.3123981 64.5856789,46.4123931 64.4569263,46.4586092 C64.4051728,46.4770956 64.3508948,46.486759 64.2957752,46.486759 C64.2158308,46.486759 64.1358864,46.4661718 64.0656194,46.4270982 C60.1357206,44.2503183 55.8549079,42.6562818 51.7154706,41.1143436 C43.681899,38.1228993 36.7448282,35.5398375 36.7448282,29.8716388 C36.7448282,27.8486326 37.5926596,26.1256111 39.1965969,24.8882792 C41.0487827,23.4593604 43.8215914,22.7350275 47.4388655,22.7350275 C54.2168891,22.7350275 59.794905,25.0668415 66.6920036,30.782937 C66.7891992,30.863185 66.8510509,30.9812462 66.8615699,31.10687 Z" id="Combined-Shape" fill="#F9F9F9"></path>
    </g>
</svg>