<?xml version="1.0" encoding="UTF-8"?>
<svg width="32px" height="32px" viewBox="0 0 32 32" version="1.1" xmlns="http://www.w3.org/2000/svg" xmlns:xlink="http://www.w3.org/1999/xlink">
    <!-- Generator: Sketch 53.2 (72643) - https://sketchapp.com -->
    <title>Icons / APPS Main / STORE 1</title>
    <desc>Created with Sketch.</desc>
    <g id="Icons-/-APPS-Main-/-STORE-1" stroke="none" stroke-width="1" fill="none" fill-rule="evenodd">
        <path d="M22.248889,7.28018445 C21.7917174,4.19602797 19.1681104,1.83138327 16,1.83138327 C12.8318896,1.83138327 10.2082826,4.19602797 9.75111097,7.28018445 L21.6508776,7.28018445 L22.248889,7.28018445 Z M24.0703441,7.28018445 L26.0921053,7.28018445 C27.6914474,7.28018445 29,8.6287485 29,10.2769934 L29,29.003191 C29,30.651436 27.6914474,32 26.0921053,32 L5.90789474,32 C4.30855263,32 3,30.651436 3,29.003191 L3,10.2769934 C3,8.6287485 4.30855263,7.28018445 5.90789474,7.28018445 L7.92965588,7.28018445 C8.39897046,3.18147533 11.8331883,0 16,0 C20.1668117,0 23.6010295,3.18147533 24.0703441,7.28018445 Z" id="Combined-Shape" fill="#FFFFFF"></path>
    </g>
</svg>