<?xml version="1.0" encoding="UTF-8"?>
<svg width="68px" height="68px" viewBox="0 0 68 68" version="1.1" xmlns="http://www.w3.org/2000/svg" xmlns:xlink="http://www.w3.org/1999/xlink">
    <!-- Generator: Sketch 53.2 (72643) - https://sketchapp.com -->
    <title>Icons / APPS / EXTERNAL / SOFORT 1</title>
    <desc>Created with Sketch.</desc>
    <g id="Icons-/-APPS-/-EXTERNAL-/-SOFORT-1" stroke="none" stroke-width="1" fill="none" fill-rule="evenodd">
        <path d="M34.0508565,67 C46.0637045,67 55.25,58.6929461 55.25,46.4605809 C55.25,35.1410788 47.4769807,30.2116183 37.9373662,27.2904564 C31.8426124,25.4647303 28.0444325,24.0954357 28.0444325,19.6224066 C28.0444325,15.879668 30.6943255,12.9585062 34.8458244,12.9585062 C38.379015,12.9585062 41.0289079,15.0580913 42.883833,18.253112 L52.8650964,11.7717842 C49.7735546,4.65145228 42.7955032,1 35.1991435,1 C23.1862955,1 15.5899358,9.94605809 15.5899358,20.2614108 C15.5899358,28.4771784 20.359743,34.8672199 32.1959315,38.4273859 C38.6440043,40.3443983 42.7071734,41.6224066 42.7071734,46.9170124 C42.7071734,51.846473 39.2623126,54.9502075 34.2275161,54.9502075 C28.8394004,54.9502075 24.7762313,51.3900415 22.3029979,48.1037344 L14,56.7759336 C18.4164882,62.9834025 25.6595289,67 34.0508565,67 Z" id="Shape-Copy-2" fill="#FFFFFF"></path>
    </g>
</svg>