<?xml version="1.0" encoding="UTF-8"?>
<svg width="68px" height="68px" viewBox="0 0 68 68" version="1.1" xmlns="http://www.w3.org/2000/svg" xmlns:xlink="http://www.w3.org/1999/xlink">
    <!-- Generator: Sketch 53.2 (72643) - https://sketchapp.com -->
    <title>Icons / APPS / EXTERNAL / STRIPE 1</title>
    <desc>Created with Sketch.</desc>
    <g id="Icons-/-APPS-/-EXTERNAL-/-STRIPE-1" stroke="none" stroke-width="1" fill="none" fill-rule="evenodd">
        <path d="M68,34.448 C68,29.6693333 65.6577778,25.8986667 61.1811111,25.8986667 C56.6855556,25.8986667 53.9655556,29.6693333 53.9655556,34.4106667 C53.9655556,40.0293333 57.1766667,42.8666667 61.7855556,42.8666667 C64.0333333,42.8666667 65.7333333,42.3626667 67.0177778,41.6533333 L67.0177778,37.92 C65.7333333,38.5546667 64.26,38.9466667 62.39,38.9466667 C60.5577778,38.9466667 58.9333333,38.312 58.7255556,36.1093333 L67.9622222,36.1093333 C67.9622222,35.8666667 68,34.896 68,34.448 Z M58.6688889,32.6746667 C58.6688889,30.5653333 59.9722222,29.688 61.1622222,29.688 C62.3144444,29.688 63.5422222,30.5653333 63.5422222,32.6746667 L58.6688889,32.6746667 Z" id="Shape" fill="#FFFFFF"></path>
        <path d="M46.6744444,25.8986667 C44.8233333,25.8986667 43.6333333,26.7573333 42.9722222,27.3546667 L42.7266667,26.1973333 L38.5711111,26.1973333 L38.5711111,47.9626667 L43.2933333,46.9733333 L43.3122222,41.6906667 C43.9922222,42.176 44.9933333,42.8666667 46.6555556,42.8666667 C50.0366667,42.8666667 53.1155556,40.1786667 53.1155556,34.2613333 C53.0966667,28.848 49.98,25.8986667 46.6744444,25.8986667 Z M45.5411111,38.76 C44.4266667,38.76 43.7655556,38.368 43.3122222,37.8826667 L43.2933333,30.9573333 C43.7844444,30.416 44.4644444,30.0426667 45.5411111,30.0426667 C47.26,30.0426667 48.45,31.9466667 48.45,34.392 C48.45,36.8933333 47.2788889,38.76 45.5411111,38.76 Z" id="Shape" fill="#FFFFFF"></path>
        <polygon id="Path" fill="#FFFFFF" points="32.0733333 24.7973333 36.8144444 23.7893333 36.8144444 20 32.0733333 20.9893333"></polygon>
        <rect id="Rectangle" fill="#FFFFFF" x="32.0733333" y="26.216" width="4.74111111" height="16.3333333"></rect>
        <path d="M26.9922222,27.5973333 L26.69,26.216 L22.61,26.216 L22.61,42.5493333 L27.3322222,42.5493333 L27.3322222,31.48 C28.4466667,30.0426667 30.3355556,30.304 30.9211111,30.5093333 L30.9211111,26.216 C30.3166667,25.992 28.1066667,25.5813333 26.9922222,27.5973333 Z" id="Path" fill="#FFFFFF"></path>
        <path d="M17.5477778,22.1653333 L12.9388889,23.136 L12.92,38.088 C12.92,40.8506667 15.0166667,42.8853333 17.8122222,42.8853333 C19.3611111,42.8853333 20.4944444,42.6053333 21.1177778,42.2693333 L21.1177778,38.48 C20.5133333,38.7226667 17.5288889,39.5813333 17.5288889,36.8186667 L17.5288889,30.192 L21.1177778,30.192 L21.1177778,26.216 L17.5288889,26.216 L17.5477778,22.1653333 Z" id="Path" fill="#FFFFFF"></path>
        <path d="M4.77888889,30.9573333 C4.77888889,30.2293333 5.38333333,29.9493333 6.38444444,29.9493333 C7.82,29.9493333 9.63333333,30.3786667 11.0688889,31.144 L11.0688889,26.7573333 C9.50111111,26.1413333 7.95222222,25.8986667 6.38444444,25.8986667 C2.55,25.8986667 0,27.8773333 0,31.1813333 C0,36.3333333 7.17777778,35.512 7.17777778,37.7333333 C7.17777778,38.592 6.42222222,38.872 5.36444444,38.872 C3.79666667,38.872 1.79444444,38.2373333 0.207777778,37.3786667 L0.207777778,41.8213333 C1.96444444,42.568 3.74,42.8853333 5.36444444,42.8853333 C9.29333333,42.8853333 11.9944444,40.9626667 11.9944444,37.6213333 C11.9755556,32.0586667 4.77888889,33.048 4.77888889,30.9573333 Z" id="Path" fill="#FFFFFF"></path>
    </g>
</svg>