<?xml version="1.0" encoding="UTF-8"?>
<svg width="16px" height="13px" viewBox="0 0 16 13" version="1.1" xmlns="http://www.w3.org/2000/svg" xmlns:xlink="http://www.w3.org/1999/xlink">
    <!-- Generator: Sketch 53.2 (72643) - https://sketchapp.com -->
    <title>Transactions</title>
    <desc>Created with Sketch.</desc>
    <g id="Apple" stroke="none" stroke-width="1" fill="none" fill-rule="evenodd">
        <g id="Apple-2" transform="translate(-391.000000, -2197.000000)" fill="#FFFFFF">
            <g id="Icons-/-APPS-Main-/-TRANSACTIONS-1" transform="translate(391.000000, 2195.000000)">
                <path d="M0.268533333,9.18823218 C0.0952,9.36431045 0,9.59826629 0,9.84716705 C0,10.0952526 0.0949333333,10.328665 0.268,10.5044716 L3.89493333,14.1882571 C3.96213333,14.2564603 4.0384,14.313251 4.1216,14.3569988 C4.49866667,14.5874222 4.96053333,14.5300881 5.25946667,14.2262987 L15.7317333,3.58932376 C15.9045333,3.41378895 16,3.18037656 16,2.93174753 C16,2.68284677 15.9045333,2.44889092 15.7314667,2.27281266 C15.3730667,1.90924365 14.7906667,1.90897192 14.4330667,2.27254093 L4.596,12.2641673 L1.56693333,9.18741701 C1.38826667,9.00590423 1.15333333,8.91514784 0.9184,8.91514784 C0.6832,8.91514784 0.447733333,9.00617595 0.268533333,9.18823218 Z" id="Check-Copy"></path>
            </g>
        </g>
    </g>
</svg>