<?xml version="1.0" encoding="UTF-8"?>
<svg width="16px" height="10px" viewBox="0 0 16 10" version="1.1" xmlns="http://www.w3.org/2000/svg" xmlns:xlink="http://www.w3.org/1999/xlink">
    <!-- Generator: Sketch 56 (81588) - https://sketch.com -->
    <title>icon/image/remove_red_eye_24px</title>
    <desc>Created with Sketch.</desc>
    <g id="Desktop" stroke="none" stroke-width="1" fill="none" fill-rule="evenodd">
        <g id="B2-Overview-5" transform="translate(-1105.000000, -3176.000000)" fill="#FFFFFF" fill-rule="nonzero">
            <path d="M1113,3176 C1109.66667,3176 1106.82,3178.07333 1105.66667,3181 C1106.82,3183.92667 1109.66667,3186 1113,3186 C1116.33333,3186 1119.18,3183.92667 1120.33333,3181 C1119.18,3178.07333 1116.33333,3176 1113,3176 Z M1113,3184.33333 C1111.16,3184.33333 1109.66667,3182.84 1109.66667,3181 C1109.66667,3179.16 1111.16,3177.66667 1113,3177.66667 C1114.84,3177.66667 1116.33333,3179.16 1116.33333,3181 C1116.33333,3182.84 1114.84,3184.33333 1113,3184.33333 Z M1113,3179 C1111.89333,3179 1111,3179.89333 1111,3181 C1111,3182.10667 1111.89333,3183 1113,3183 C1114.10667,3183 1115,3182.10667 1115,3181 C1115,3179.89333 1114.10667,3179 1113,3179 Z" id="icon/image/remove_red_eye_24px"></path>
        </g>
    </g>
</svg>