<?xml version="1.0" encoding="UTF-8"?>
<svg width="68px" height="68px" viewBox="0 0 68 68" version="1.1" xmlns="http://www.w3.org/2000/svg" xmlns:xlink="http://www.w3.org/1999/xlink">
    <!-- Generator: Sketch 53.2 (72643) - https://sketchapp.com -->
    <title>Icons / APPS / EXTERNAL / WOO 1</title>
    <desc>Created with Sketch.</desc>
    <g id="Icons-/-APPS-/-EXTERNAL-/-WOO-1" stroke="none" stroke-width="1" fill="none" fill-rule="evenodd">
        <path d="M7.12528067,18 L60.8479332,18 C64.2477595,18 67,20.7481785 67,24.1429871 L67,44.6196108 C67,48.0144194 64.2477595,50.762598 60.8479332,50.762598 L41.5822507,50.762598 L44.22656,57.2289002 L32.5969955,50.762598 L7.15226343,50.762598 C3.75243708,50.762598 1.00019672,48.0144194 1.00019672,44.6196108 L1.00019672,24.1429871 C0.973213972,20.7751214 3.72545433,18 7.12528067,18 Z M4.75844203,23.5990415 C4.38283227,24.0812556 4.22185664,24.697418 4.32917373,25.3939495 C5.91210056,35.4400765 7.3877103,42.2178635 8.75600299,45.7273106 C9.29258836,47.0132148 9.90966154,47.6293773 10.6340518,47.575798 C11.7608811,47.495429 13.1023445,45.9416279 14.6852713,42.914395 C15.5169786,41.199856 16.8047835,38.6280475 18.5486859,35.1989695 C19.9974664,40.2622175 21.9828323,44.066351 24.4779542,46.6113697 C25.1755152,47.334691 25.8999054,47.656167 26.5974664,47.6025877 C27.2145395,47.5490083 27.6974664,47.2275321 28.0194177,46.6381593 C28.2877103,46.1291558 28.3950273,45.5397829 28.3413688,44.8700411 C28.1803933,42.4321809 28.4218566,39.0298926 29.0925883,34.663176 C29.7901493,30.1625111 30.648686,26.9209608 31.6950273,24.9921044 C31.9096614,24.5902593 31.9901494,24.1884143 31.9633202,23.7062002 C31.9096614,23.0900377 31.6413688,22.5810339 31.1316127,22.1791888 C30.6218568,21.7773438 30.0584421,21.589816 29.4413689,21.6433954 C28.6633202,21.6969747 28.0730763,22.0720302 27.6706371,22.822141 C26.0072225,25.8493739 24.8267347,30.7518839 24.1291737,37.5564606 C23.1096615,34.9846521 22.251125,31.9574192 21.5803932,28.3943928 C21.2852713,26.8138021 20.560881,26.0636913 19.3803932,26.1440603 C18.5755152,26.1976396 17.9047835,26.7334331 17.3681981,27.7514406 L11.4925884,38.9227339 C10.5267347,35.0382314 9.61453958,30.2964595 8.78283228,24.697418 C8.5950274,23.3043551 7.81697861,22.6614029 6.44868592,22.7685616 C5.69746642,22.822141 5.13405177,23.0900377 4.75844203,23.5990415 Z M62.4145397,27.80502 C61.4486859,26.1172706 60.0267347,25.0992631 58.1218566,24.697418 C57.6121004,24.5902593 57.1291738,24.53668 56.6730762,24.53668 C54.0974664,24.53668 52.0047835,25.8761636 50.368198,28.5551308 C48.9730761,30.8322529 48.2755151,33.3504821 48.2755151,36.1098183 C48.2755151,38.1726231 48.7047835,39.9407414 49.56332,41.4141734 C50.5291738,43.1019227 51.951125,44.1199304 53.8560031,44.5217753 C54.3657592,44.6289339 54.8486859,44.6825133 55.3047835,44.6825133 C57.9072225,44.6825133 59.9999054,43.3430298 61.6096614,40.6640626 C63.0047836,38.3601508 63.7023445,35.8419216 63.7023445,33.0825854 C63.7291738,30.992991 63.2730762,29.2516623 62.4145397,27.80502 Z M45.6194176,27.80502 C44.653564,26.1172706 43.2047836,25.0992631 41.3267348,24.697418 C40.8169786,24.5902593 40.3340517,24.53668 39.8779543,24.53668 C37.3023445,24.53668 35.2096614,25.8761636 33.5730762,28.5551308 C32.1779542,30.8322529 31.4803933,33.3504821 31.4803933,36.1098183 C31.4803933,38.1726231 31.9096614,39.9407414 32.7681982,41.4141734 C33.7340517,43.1019227 35.1560029,44.1199304 37.060881,44.5217753 C37.5706371,44.6289339 38.053564,44.6825133 38.5096614,44.6825133 C41.1121004,44.6825133 43.2047836,43.3430298 44.8145396,40.6640626 C46.2096615,38.3601508 46.9072225,35.8419216 46.9072225,33.0825854 C46.9072225,30.992991 46.4779543,29.2516623 45.6194176,27.80502 Z M59.0340519,35.2257591 C58.658442,36.9938775 57.9877103,38.3065714 56.9950275,39.1906306 C56.2169785,39.8871621 55.4925883,40.1818485 54.8218566,40.0479001 C54.1779542,39.9139518 53.6413687,39.3513686 53.2389299,38.3065714 C52.9169785,37.4760916 52.756003,36.6456118 52.756003,35.8687113 C52.756003,35.1989695 52.8096615,34.5292277 52.9438078,33.9130652 C53.1852714,32.8146887 53.6413687,31.7431018 54.3657592,30.7250942 C55.251125,29.4124003 56.1901493,28.8766069 57.1560031,29.0641346 C57.7999055,29.1980829 58.3364909,29.760666 58.7389298,30.8054632 C59.0608811,31.6359431 59.2218567,32.4664229 59.2218567,33.2433234 C59.2218567,33.9398549 59.1681982,34.6095967 59.0340519,35.2257591 Z M42.2121005,35.2257591 C41.8364909,36.9938775 41.1657592,38.3065714 40.1730762,39.1906306 C39.3950274,39.8871621 38.6706372,40.1818485 37.9999055,40.0479001 C37.3560031,39.9139518 36.8194176,39.3513686 36.4169785,38.3065714 C36.0950274,37.4760916 35.9340519,36.6456118 35.9340519,35.8687113 C35.9340519,35.1989695 35.9877104,34.5292277 36.1218567,33.9130652 C36.36332,32.8146887 36.8194176,31.7431018 37.5438079,30.7250942 C38.4291736,29.4124003 39.3681982,28.8766069 40.3340517,29.0641346 C40.9779542,29.1980829 41.5145396,29.760666 41.9169787,30.8054632 C42.2389298,31.6359431 42.3999053,32.4664229 42.3999053,33.2433234 C42.4267346,33.9398549 42.3462468,34.6095967 42.2121005,35.2257591 L42.2121005,35.2257591 L42.2121005,35.2257591 Z" id="Combined-Shape" fill="#F9F9F9" fill-rule="nonzero"></path>
    </g>
</svg>